<svg viewBox="0 0 30 30" xmlns="http://www.w3.org/2000/svg"><g fill="#d2dfe0"><path d="m20.12 11.13a2.2 2.2 0 0 0 -1.25-1.25 14.56 14.56 0 0 0 -3.87-.26 14.62 14.62 0 0 0 -3.87.26 2.23 2.23 0 0 0 -1.25 1.25 14.56 14.56 0 0 0 -.26 3.87 14.56 14.56 0 0 0 .26 3.87 2.23 2.23 0 0 0 1.25 1.25 14.59 14.59 0 0 0 3.87.26 14.56 14.56 0 0 0 3.87-.26 2.23 2.23 0 0 0 1.25-1.25 14.56 14.56 0 0 0 .26-3.87 14.56 14.56 0 0 0 -.26-3.87zm-5.12 7.24a3.37 3.37 0 1 1 3.37-3.37 3.36 3.36 0 0 1 -3.37 3.37zm3.51-6.09a.79.79 0 1 1 .78-.78.78.78 0 0 1 -.78.78z"/><circle cx="15" cy="15" r="2.19"/><path d="m15 0a15 15 0 1 0 15 15 15 15 0 0 0 -15-15zm6.52 17.71a3.63 3.63 0 0 1 -3.81 3.81c-1.09.06-4.33.06-5.42 0a3.89 3.89 0 0 1 -2.75-1.06 3.89 3.89 0 0 1 -1.06-2.75c-.06-1.09-.06-4.34 0-5.42a3.89 3.89 0 0 1 1.06-2.75 3.89 3.89 0 0 1 2.75-1.06c1.09-.06 4.33-.06 5.42 0a3.89 3.89 0 0 1 2.75 1.06 3.89 3.89 0 0 1 1.06 2.75c.06 1.09.06 4.33 0 5.42z"/></g></svg>