<svg id="Layer_1" data-name="Layer 1" xmlns="http://www.w3.org/2000/svg" viewBox="0 0 16 16"><defs><style>.cls-1{fill:#d04400;}</style></defs><path class="cls-1" d="M16,8A8,8,0,1,1,8,0,8,8,0,0,1,16,8ZM14.45,8A6.45,6.45,0,1,0,8,14.45,6.45,6.45,0,0,0,14.45,8ZM9.12,9.22v.2a.39.39,0,0,1-.38.39H7.26a.39.39,0,0,1-.38-.39V9.14c0-1.15.87-1.61,1.53-2s.91-.54.91-1S8.62,5.28,8,5.28c-.75,0-1.09.35-1.58,1a.37.37,0,0,1-.53.07L5,5.63a.39.39,0,0,1-.09-.53A3.63,3.63,0,0,1,8.19,3.35a3.21,3.21,0,0,1,3.27,2.87C11.46,8.38,9.12,8.42,9.12,9.22ZM8,13a1.36,1.36,0,1,1,1.35-1.36A1.35,1.35,0,0,1,8,13Z"/></svg>