<svg viewBox="0 0 30 30" xmlns="http://www.w3.org/2000/svg"><path d="m15 0a15 15 0 1 0 15 15 15 15 0 0 0 -15-15zm6 11.94v.4a8.75 8.75 0 0 1 -13.5 7.37 6.12 6.12 0 0 0 .74 0 6.21 6.21 0 0 0 3.82-1.31 3.1 3.1 0 0 1 -2.88-2.1 3.92 3.92 0 0 0 .59.05 3.5 3.5 0 0 0 .8-.1 3.09 3.09 0 0 1 -2.46-3 3.07 3.07 0 0 0 1.39.39 3.06 3.06 0 0 1 -1.37-2.64 3 3 0 0 1 .42-1.55 8.73 8.73 0 0 0 6.34 3.22 3.36 3.36 0 0 1 -.08-.71 3.08 3.08 0 0 1 5.32-2.1 6.06 6.06 0 0 0 1.95-.74 3.06 3.06 0 0 1 -1.35 1.69 6.51 6.51 0 0 0 1.77-.47 6.6 6.6 0 0 1 -1.5 1.6z" fill="#d2dfe0"/></svg>