<svg id="Layer_1" data-name="Layer 1" xmlns="http://www.w3.org/2000/svg" viewBox="0 0 1320.83 652.67"><defs><style>.cls-1{fill:#ef9595;}.cls-2{fill:#111;}</style></defs><path class="cls-1" d="M467.06,206.94q-2.28.38-5.33,1.14a47.77,47.77,0,0,1-7.24,1.14,51.58,51.58,0,0,1-7.61.38,31,31,0,0,1-5.71-.38,10.61,10.61,0,0,0-4,0,26.65,26.65,0,0,1-4,.38h-1.52a2,2,0,0,0-2.28,2.29q-.39,7.23-.38,21.7l.38,19.42q.38,6.86.38,19.79v17.52l.38,14.47q.38,3-2.29,3H426.7a4.06,4.06,0,0,0-2.09-.19,8.67,8.67,0,0,1-1.72.19l-.38-1.52a7.93,7.93,0,0,1-6.09,3.05,12.6,12.6,0,0,1-3-.38,13.88,13.88,0,0,0-3.43-.39,6.77,6.77,0,0,0,.76-1.9,1.27,1.27,0,0,1-.95.38c-.38,0-.57.13-.57.38a3.71,3.71,0,0,1-1.34.95,1.73,1.73,0,0,1-1.33-.19,1.55,1.55,0,0,0-1.14-.38,31.87,31.87,0,0,0-5.33-.76,6.84,6.84,0,0,1-3.43-1.14l-.76.38a2.23,2.23,0,0,0-.38,1.52c-1-.25-1.27-1.14-.76-2.66-1.52,0-2.23-.63-2.1-1.91s.2-2,.2-2.28a11.28,11.28,0,0,1-.39-3.43v-3l.77-13.71V262.14l-.38-27q0-4.94.76-15.61l-.38-22.08V184.85l-.38-13.7-.39-27.8.39-17.89V112.13c0-6.09-.14-10.53-.39-13.32q-.37-5.72-.38-16.75a65.33,65.33,0,0,1,1.15-12.19c0-.25.5-.88,1.52-1.9l1.9,1.52,1.91-3.81a1.55,1.55,0,0,1,1.14-.38,13.4,13.4,0,0,0,3.24-.57,15.13,15.13,0,0,1,4-.57,81.27,81.27,0,0,1,9.14-.38c2.54-.25,6.34-.38,11.42-.38l16.37.76,3.43.38.76.38q10.29,0,15.23.38a32.82,32.82,0,0,0,4.57,1.34,23.46,23.46,0,0,1,6.85,2.85Q472.39,69.11,468,68a59.07,59.07,0,0,0-7.42-1.52.33.33,0,0,0-.38.38l1.14.76q9.9,2.28,14.47,3.8Q488,76,496.76,88.91,502.09,96.53,504,111q1.51,7.62,2.29,22.85a78.72,78.72,0,0,0,.38,9.13,36.64,36.64,0,0,1-1.15,11.81,7.47,7.47,0,0,1-.95,2.66,7.89,7.89,0,0,0-.95,3.43l.76-1.14A163.06,163.06,0,0,1,499,176.86a38.31,38.31,0,0,1-16,20.18c-2.54,1.52-6.35,3.56-11.42,6.09-.51.51-.76.89-.76,1.14l8.37-4.19a21.5,21.5,0,0,1-10.28,6.1c.25,0,.63-.25,1.15-.77l-9.9,2.29A45.51,45.51,0,0,0,467.06,206.94Zm-62.82,4.19h-.76v1.52l.38,2.28-.38,11q.38,14.1.38,41.5l.38,1.15.38,5.33q-.76,9.14-.76,14.47a99.57,99.57,0,0,0-.38,10.27c0,2,.5,3.43,1.52,4.19v-13.7a8.31,8.31,0,0,1,.38-2.67l.38-2.28-.38-23.61q-.76-16-.76-23.6V213.41Zm3.42.38-.76.38.38,44.54h-.38a32,32,0,0,0-.38-5.71h-.76l1.14,51a15.34,15.34,0,0,0,1.53-2.66,4.59,4.59,0,0,1,.38-1.72,4.71,4.71,0,0,0,.38-1.71l-.38-26.27q-.78-37.31-.77-55.59Zm-1.52,80.33h-.38v8.38h.38Zm.76-147.34h-.76l.38,6.47h.38Zm-.38-28.18v23.23h.76ZM410.71,258l-.38-22.09v-3.8a12.79,12.79,0,0,0,.76-3.81v-.76a14.39,14.39,0,0,1-.19-4,25.8,25.8,0,0,0,.19-2.86,15.88,15.88,0,0,0,.19-4.18,33.83,33.83,0,0,1-.19-3.43,2.61,2.61,0,0,0-.76-1.9c-.76,0-1.14.63-1.14,1.9a68.86,68.86,0,0,0-.38,8.76l.38,13.32q.38,4.57.38,13.33v28.93l1.14,7.62v13.32l.38,1.53a4.19,4.19,0,0,0,1.52-2.67V292.6l-.76-36.55v-2.28l-.76.38A13.56,13.56,0,0,1,410.71,258Zm.38-87.95-1.52.76v-5.71h-.38v9.13a7.66,7.66,0,0,0,1.52,3.05A52.61,52.61,0,0,1,411.09,170Zm.76,5H413a1.71,1.71,0,0,1,.19-.77.62.62,0,0,0-.19-.76l-.38-8q-.37-14.48-.38-43.41v-3.8h-.38Zm3.43,124.88h.38V296a13.19,13.19,0,0,1,.38-3.81,2.31,2.31,0,0,1,.38-1.33,2.36,2.36,0,0,0,.38-1.33l-1.14-36.93-.38-22.85q-.39-5.33-.38-16.75c0-1.27-.76-1.9-2.29-1.9l-.38,1.52.76,35q0,16.36.77,48.35A5.15,5.15,0,0,0,415.28,299.84Zm1.14-132.12v0Zm1.52,88.71h-.38l-.76-43.78v1.9l.38,55.59.38,24a2.44,2.44,0,0,0,1.53,2.28,80.35,80.35,0,0,1,.76-9.14v10.28h.76a34.74,34.74,0,0,0,.38-6.09l-.38-12.18,1.14,14.85a11.94,11.94,0,0,0,.76,3.42h.76v-1.14q0-15.6-.38-23.61,0-8.74-.76-26.27l-.38-33.88-.38-1.91h-1.14l.38,45.31h-.38l-.76-36.93h-.76l.76,53.3h-.38q0-6.07-.76-19h-.39Zm1.53,19.42v7.62h-.38v-7.62Zm6.09-95.18h.38v-1.15l-.76-1.52L424,179.14v2.67c.5.51.88.76,1.14.76l.76-.76A1.55,1.55,0,0,0,425.56,180.67Zm0,119.17h.38l.38-1.15q1.14-5.7,1.14-6.09l-.38-12.94q0-22.47-.76-67.39a7,7,0,0,0-.76-1.91,3.15,3.15,0,0,0-1.14,1.91L424,222.93q.38,13.33.38,40.74.75,22.84.76,34.64ZM424,283.09v11h.38Zm1.52-151.92h-.38v38.07a46.85,46.85,0,0,1-.76,6.86l.38.76.76-.76a26.45,26.45,0,0,0,.38-4.95l-.38-37.31Zm50.26,20.18a101.34,101.34,0,0,1,.76-10.28h-.38a45.51,45.51,0,0,0-.76,6.85,11.34,11.34,0,0,0,.38,3.43,1.1,1.1,0,0,0-.19,1.14,1.15,1.15,0,0,1-.19,1.14q-.39,1.53-1,4.38a27.22,27.22,0,0,1-1.33,4.76A16,16,0,0,1,469,170c-4.06,3-7.74,4.7-11,5a117.52,117.52,0,0,1-18.27.76,2.21,2.21,0,0,1,1.52-.38,78.25,78.25,0,0,0,8.76-.77l4.56-.38a18.15,18.15,0,0,0,11.43-3.42,11.16,11.16,0,0,0,3-2.67,17.46,17.46,0,0,0,3.81-8.75c.25-1,.89-3.18,1.9-6.48l-.38-1.14h-.38l-1.14,3.81h-.38l.38-3.43H472a72.83,72.83,0,0,1-1.71,8.76,16.72,16.72,0,0,1-3.62,6.47l2.28-6.85q2.3-4.58,2.29-7.24,0-8.75-.76-25.51l-1.15-7.23-3.42-8c-.76-3.29-3.69-6-8.76-8a50.85,50.85,0,0,0-8.38-1.52,104.05,104.05,0,0,0-11-1.53,28.51,28.51,0,0,0-2.85.19,14.36,14.36,0,0,1-4-.19,3,3,0,0,0-1.9.38,3,3,0,0,0-.39,1.91l.39,11.8a62.3,62.3,0,0,1,.38,8h-.77v-5c-.25,1-.51,2.16-.76,3.42a24.11,24.11,0,0,0-.38,4.57,9.49,9.49,0,0,0,1.14,4.19v.76l-.38,25.13.38,7.23h.77V151a8,8,0,0,1,.38,3v21.33a2,2,0,0,0,2.28,2.28l13-.38q1.14,0,7.23-.38a26.38,26.38,0,0,0,11-3.05c.51-.25,1.53-.69,3.05-1.33a11.73,11.73,0,0,0,3.81-2.47,14.27,14.27,0,0,0,3.42-6.1,70.85,70.85,0,0,0,2.29-7.42c.5-2.15.88-3.87,1.14-5.14v-1.52h-.38ZM428.6,230.16h-.38v28.18h.38Zm.77-62.06h-.77v6.47h.77Zm-.77,115H429v-16h-.39Zm1.15-208.65a68,68,0,0,1,12.56-1.14q14.46,0,32.36,5.71a86.48,86.48,0,0,0-30.84-6.09A58.56,58.56,0,0,0,429.75,74.44Zm50.63,82.24H480a20.71,20.71,0,0,0-.76,4.57,18.66,18.66,0,0,1-4.95,10.28,25.18,25.18,0,0,1-15.61,9.14,100.86,100.86,0,0,1-22.08.76,18.32,18.32,0,0,0-4.19-.38q11.43-.77,16.75-.76c1,0,3.11-.06,6.29-.19a18.14,18.14,0,0,0,8.18-2.1,65,65,0,0,0,8-4.95,11.64,11.64,0,0,0,4.19-6.47,5.38,5.38,0,0,0,.38-2.29h-.38L473.53,167a8.19,8.19,0,0,0-1.52,2.47,5.61,5.61,0,0,1-1.9,2.48A25.33,25.33,0,0,1,457.54,178q-7.62.76-11.42.76-5,0-14.09-.76h-2.28v3.43c0,.51.38,1,1.14,1.52a203.62,203.62,0,0,0,24.37-.76,79.39,79.39,0,0,0,9.9-2.67,24.36,24.36,0,0,0,9.89-6.85A35.17,35.17,0,0,0,480.38,156.68Zm-50.63,66.63V212.65h.38v10.66ZM473.53,186v-.38h-1.14a37.42,37.42,0,0,1-16,5.33q-3.81.38-11.42.38l-9.52-.38a18.26,18.26,0,0,0-4.19.38l-1.14.38v.38a1.55,1.55,0,0,0,1.14.38l15.23.38q11.79,0,18.28-2.67A21.08,21.08,0,0,0,473.53,186Zm-42.64-2.29v.38h19.42Zm0,4.19v.38h5.33v-.38Zm56-2.66,1.14-1.91a46.58,46.58,0,0,0,9.14-24.75v-1.14h-.76q0,6.85-4.19,17.52a43.68,43.68,0,0,1-11.42,14.46,28.9,28.9,0,0,1-8.19,4.76q-5.15,2.1-7.8,3.24l1.52.38,9.9-4.19,2.66-1.14a28.77,28.77,0,0,1-14.47,6.47q-5,1.14-15.23,1.14a37,37,0,0,1-6.47.38,33.7,33.7,0,0,0,6.09.39q13.34,0,21.33-3,6.47-1.91,13.7-8a19.25,19.25,0,0,0,3.43-3.61c1.27-1.65,2.15-2.86,2.66-3.62a7.57,7.57,0,0,0,1.91-2.67l4.18-9.13c.25-.76.64-1.84,1.15-3.24a28.75,28.75,0,0,0,1.14-4q.38-2.28.76-6.09t.38-9.14q0-6.08-.76-19,0-8-3.05-24.75l-1.9-6.85c.51,3,1,5.58,1.52,7.61q1.51,8.76,1.91,12.18.75,7.25,1.52,21.71a117.52,117.52,0,0,1-.76,18.27c0,.51.06,1.4.19,2.67a6.24,6.24,0,0,1-.57,3.42q-1.53,5-5.33,14.85l-2.29,3.81Zm2.28-11.43a.33.33,0,0,1-.38-.38l-1.14,1.14q-6.48,13.71-22.46,18.66a70.42,70.42,0,0,1-19.8,2.67h-1.15l.77.38h5.33q20.93,0,33.12-13.71A22.67,22.67,0,0,0,489.14,173.81Zm-44.93,34.65v.38l4.19.38a13,13,0,0,0,5.33-.76ZM477.72,154h-.38q-.39,1.92-1.14,4.38t-1.53,5.14h.77C477,159.48,477.72,156.3,477.72,154Zm2.66-.38c1.27.52,1.53-.5.77-3l-1.53,1.9-.76,3.43h.76A5.83,5.83,0,0,1,480.38,153.63Zm6.48,31.61a22.4,22.4,0,0,1-8,7.23Zm-7.24-13a.34.34,0,0,1,.38.38,30.09,30.09,0,0,0,1.34-3,21.7,21.7,0,0,1,1.71-3.42l-.38-.38Q480,171.15,479.62,172.29Z"/><path class="cls-1" d="M534.83,268.62c-.26-1.53-.64-3.3-1.15-5.33a47.35,47.35,0,0,1-1.14-6.86q-.37-13.32-.38-39.21-.76-26.65-.76-40,0-12.94.76-38.84,0-12.93.76-38.83.38-6.09,1.91-20.18,0-.37,1.14-7.23l.38-.77h.38a32.93,32.93,0,0,1-.76,5.34c-.26,2.28-.57,4.5-1,6.66s-.71,4.25-1,6.28l-.76,26.65-1.14,27.8V154.4c0,2.28-.06,5.14-.19,8.56s-.06,7.3.19,11.61q0,24,.38,36.17v22.85l.38,20.18.38,5h.76v-1.91l-.76-48q-.76-30.45-.76-45.31,0-7.23.76-20.94.76-9.14.76-14.08,0-20.94.39-31.22,0-14.08,3.42-24.37a2.15,2.15,0,0,0,.19-2.29,4.54,4.54,0,0,1-.57-1.52l-1.52.38a13.65,13.65,0,0,0,2.28-2.66,10,10,0,0,1,.38-3v2.67l1.15,1.14a.6.6,0,0,1,.38-.57c.25-.13.38-.44.38-1V63.78h.38a6.48,6.48,0,0,1,1.52,1.14,8.86,8.86,0,0,0,2.29,1.53L547,64.16l1.9,1.52V65.3a.85.85,0,0,0,1,.19.88.88,0,0,1,1,.19,2.48,2.48,0,0,0,2.47.19,3.18,3.18,0,0,0,1.33-2.09,12.38,12.38,0,0,0,3,.76c1.52.51,2.53.38,3.05-.38a2.21,2.21,0,0,1,1.52-.38q3,.77,5.33,1.52L566.81,63a1.95,1.95,0,0,1,1.9,1.9l.76,6.86a32.47,32.47,0,0,1,.76,6.09,80.67,80.67,0,0,1,.39,9.13v24q-.39,16.38-1.91,51L568,185.24l-.38,22.84q0,7.23.76,21.7l.38,10.66a33.83,33.83,0,0,1-.19,3.43,19.38,19.38,0,0,0,.19,4.57,117,117,0,0,0,1.91,13.32,13.78,13.78,0,0,0,6.47,9.14,16.16,16.16,0,0,0,7.23,1.9l3.43-.38a6.2,6.2,0,0,1,2.66-.76q5.72,0,8.38-6.09,5.33-10.27,6.85-18.27c.25-2,.76-5.53,1.53-10.47s1.26-9.58,1.52-13.9V186.76l-.38-31.22V127l-.38-18.65v-5h.38q.75,16,.76,23.6h.38a61.4,61.4,0,0,0,.76-8,81.27,81.27,0,0,0-.38-9.14,76.67,76.67,0,0,1-.38-8.76q0-4.94.76-14.09V76.73q-.76,8.37-1.52,23.6h-.38a2.16,2.16,0,0,1-.38-1.52q.38-4.19.38-12.57l1.14-9.9.38-1.14a16.18,16.18,0,0,0,.38-3.81V65.68L614.4,63c1.27,1.27,2.53,1.52,3.81.76s1.9-.38,1.9,1.14l.76.76a7.25,7.25,0,0,1,5.33-1.9,6.91,6.91,0,0,1,3,.76,2.56,2.56,0,0,1,1.14-2.28,4.67,4.67,0,0,1,2.67-.76,1.58,1.58,0,0,1,1.14.38c1,.76,1.77.89,2.28.38.25,0,.63-.63,1.14-1.91a1.27,1.27,0,0,1,1.53.38c.5.52,1.26,1.4,2.28,2.67l-1.14-4.57a4.71,4.71,0,0,1,2.29,3.43c0,.51.37,3,1.14,7.61a5.38,5.38,0,0,1,.38,2.29l-.38,10.28q-.78,13.69-.77,20.94a40.21,40.21,0,0,0,.2,8.56c.38,3.43.69,6,1,7.81q0,9.13.38,13.7l.38,20.56v13.71l.38,10.66L646,207.7a141,141,0,0,1,.38,17.13q0,5.71-.76,16.37a112.06,112.06,0,0,1-3,20.56,5.72,5.72,0,0,0-.77,2.29l2.29-13.71h-.76a101,101,0,0,1-14.09,38.84,25.13,25.13,0,0,0,4.57-6.48l2.28-4.56c.76-1.53,1.39-2.92,1.91-4.19a45.64,45.64,0,0,1-14.09,21.7l-2.67,2.28.76-1.52a44.72,44.72,0,0,0,5.34-6.09,89.83,89.83,0,0,0,11.42-22.46l1.9-8.38h-.38l-1.14,3.43L637.24,269q-4.56,11.42-8,16.75a134.59,134.59,0,0,1-8.38,11.42,17.1,17.1,0,0,0-1.52,2.29,5.61,5.61,0,0,1-2.67,1.9c-1,.51-1.84.95-2.47,1.33s-1.46.83-2.47,1.34q-11.43,5.7-19,6.09a29.45,29.45,0,0,0-5,.38,28.18,28.18,0,0,1-4.57.38q-11.05-.76-16-3.43l-8.38-4.19a29,29,0,0,1-6.85-5.71,22.85,22.85,0,0,0-2.67-3.42l2.29,1.52a.34.34,0,0,0,.38-.38Q538.63,285,534.83,264.81h-.38Zm-.77-126.41h.39l.76-17.51h-.38Q534.05,136.12,534.06,142.21Zm2.67,135.16v.38l1.14,3.05L534.45,274l.76-.38c.25.51.5,1.08.76,1.71S536.47,276.61,536.73,277.37Zm-1.9-8.75,1.52,4.57,1.9,6.09-1.52-1.53v-.38A46.76,46.76,0,0,0,534.83,268.62Zm.76-172.86,1.52-12.94a26.45,26.45,0,0,0-1.9,10.28Zm0,6.86h-.38v8.75A74.2,74.2,0,0,1,535.59,102.62Zm0,91h-.38v11.8h.38Zm.38,27h-.38v6.1H536Zm.38,23.61H536v11h.38Zm0-162.58h.76l1.52-6.85h-.38A50.52,50.52,0,0,0,536.35,81.67Zm6.47,201.8q-4.56-9.9-6.47-24.37A56.31,56.31,0,0,0,542.82,283.47ZM536.73,92.72v0Zm3,171-.77.38,2.29,8.37a.33.33,0,0,1,.38-.38Q541.29,270.15,539.78,263.67Zm3-147-.76-.38-1.52,47.21h.38Zm-1.52,96.71h-.38l.38,4.57ZM542.44,71h-.76l-.38,3.81.38.38A21.45,21.45,0,0,0,542.44,71Zm.38,184.66v0ZM545.49,71h-.76a19.75,19.75,0,0,1-.2,2.29,14.08,14.08,0,0,1-.95,3.43,15.42,15.42,0,0,0-.38,4.18v6.86a40.9,40.9,0,0,0,1.91-9.9Q545.49,72.54,545.49,71Zm-.76,209a27,27,0,0,0,6.47,8.76c-.76-1-1.66-2.29-2.67-3.81A52.56,52.56,0,0,0,544.73,280Zm.76,7.23a.33.33,0,0,1-.38.38l5.71,5.71h.38Zm2.28-185.8h-.38v3.43q0,14.85-.38,22.08l-1.14,20.56-.38,55.21q0,28.19.38,42.64l.38,14.47.76,1.9.38-.38L547,258q0-12.94-.38-19.42V221q-.76-26.64-.76-40.35,0-10.66.76-31.22l1.14-37.32a25.2,25.2,0,0,0,.19-5.52C547.83,104.46,547.77,102.75,547.77,101.47Zm0,161.82H547c-.26,1.52.25,4.32,1.52,8.37s2.29,6.35,3.05,6.86Q550.44,274.71,547.77,263.29Zm1.14-175.52a1.55,1.55,0,0,0-1.14-.38l-.38,10.66.76.38Zm2.67-12.57h-.38l-1.14,4.57.76.38a4,4,0,0,1,.57-2.09,3.39,3.39,0,0,0,.57-1.72A1.58,1.58,0,0,0,551.58,75.2Zm1.9,129.07h-.38V186q.76-27.42.76-41.5L555,119.75v-1.91h-.76l-.38,1.53q0,6.48-.76,19.42L552,179.52l.38,33.51v32.36q0,17.13,3.43,27.41a18,18,0,0,0,4.18,7.62,36.32,36.32,0,0,0,24,10.28l1.9-.38-2.28-.76a35.31,35.31,0,0,1-19.42-6.86,16,16,0,0,1-6.47-8,71.56,71.56,0,0,1-3.81-29.7v3.43h.76l-1.14-12.19v-8.37a11.64,11.64,0,0,1,.38,3.42v3q.76-3,.76-16,0-22.08-1.14-24.75Zm.38,3v14.09h-.38V207.32Zm.76-102H555V85.1c-.51.76-.76,4.45-.76,11A59.33,59.33,0,0,0,554.62,105.28Zm2.67-29.7a1.55,1.55,0,0,0-.38,1.15,2.22,2.22,0,0,1-.76,1.52,6.82,6.82,0,0,1,0-3.24,13.25,13.25,0,0,0,.38-2.47,4.33,4.33,0,0,0-.38-1.91h-.76l-.39,11,.39.39.38-1.53v16l.76-1.52.38-8.38.38-11a6.8,6.8,0,0,0,1.14-3.42l-.38-3.43h-1.14A45.8,45.8,0,0,1,557.29,75.58Zm.38,164.1h-.38v4.95h.38Zm1.52,61.3c0,.51.13.76.38.76l8.38,5.33h.76l4.95,1.14a6.71,6.71,0,0,0,1,.77,2.37,2.37,0,0,0,1.34.38l12.56-.38,1.52-.39Zm6.09,1.9c-3-1.77-4.82-2.79-5.33-3a.34.34,0,0,1-.38.38l5.71,2.66a74.25,74.25,0,0,0,8,3.05v-.38Zm-.76-217.4h.76q0-9.9-1.52-14.85Zm1.15,91.76h-.39l-.38.76v26.65q0,21,.38,31.6,0,6.85.77,21.33a6.61,6.61,0,0,0,.38,2.47,17.65,17.65,0,0,0,.76,1.71,4.52,4.52,0,0,0,.38,1.72,4.71,4.71,0,0,1,.38,1.71l-1.52-11.8q-.39-6.48-.38-19.8,0-19.8-.38-29.7V177.24Zm.76-39.22h-.38l-.38,9.52q-.78,18.28-.39,27.8Zm1.14-19.79h-.76l-.38,13.7h.38Zm-.38-13.71h-.38V114.8h.38ZM608.69,274h.38a47.81,47.81,0,0,0,3.81-6.09l-.76-.39ZM614.4,91.57H614v6.86h.38ZM614,156.3h.38q.76-17.51.76-25.51,0-5.71-.76-17.9l-.38-8Zm14.85,79.57q-2.28,26.28-14.85,46.07Q627.73,263.29,628.87,235.87Zm-11,19-.38-.38L614.78,261l.76.38Zm0-99.37h.76q-.76-21.31-.76-32Zm2.28-29.7h.76l-.76-22.46h-.76Zm.76,41.5V142.21h-.76a107.61,107.61,0,0,0,.19,14.09Q620.87,164.3,620.87,167.34Zm6.48,110,2.66-3a4.26,4.26,0,0,1-.38,1.9l-6.47,10.66-2.67,4.19a.33.33,0,0,0,.38.38q.76-.75,4.57-6.09A33.53,33.53,0,0,0,630.77,274l-.76.38a3.35,3.35,0,0,0-.76-.57c-.26-.13-.51.06-.76.57l-1.14,3a9,9,0,0,0-1.91,3.05,6.43,6.43,0,0,1,1.52-.95C627.73,279.09,627.85,278.39,627.35,277.37ZM621.25,170c-.25,2.54-.38,6.34-.38,11.42q0,8.76.76,25.51h.77ZM622,144.5h-.38v10.66H622Zm-.38,75H622V208.84h-.38Zm4.19-146.2h-1.14l-1.14,5.33h.76Q625.44,74.45,625.82,73.3Zm3,46.45q-.39,1.91-.38,14.09,0,27.79,1.14,32.36ZM630,85.48h-.38l-.76,5.33h.76Zm-.38,84.91h-.38q.75,14.09,1.52,40.74h.38Q630.39,184.48,629.63,170.39Zm1.52-97.85c-.51,0-.76-.13-.76-.38a101.14,101.14,0,0,0-.76,10.28H630ZM630,125.46h-.38v14.09H630Zm.76-31.6H630q-.39,9.52.38,28.55.76,13,.76,20.18a4.26,4.26,0,0,0,.38-1.9l-1.14-43A13.51,13.51,0,0,1,630.77,93.86ZM630,146v0Zm.38,84.52h.38l.38-8.75h-.38Zm0,39.22q1.51-.76,3.05-5.71t.76-6.47Zm1.14-124.88h-.38V158.2h.38ZM635,88.53l.76.38V79.77h-.38A70.71,70.71,0,0,1,635,88.53Zm1.52,32.74h-.38V135h.38Zm0-51h.76a2.17,2.17,0,0,0,.77-1.52,3.68,3.68,0,0,0-.77-1.9A11.94,11.94,0,0,1,636.48,70.25Zm2.67-.38h-.38c-.26,1-.57,2.35-.95,4a18.27,18.27,0,0,0-.58,4q-.76,10.66-.76,15.61a58.11,58.11,0,0,0,.38,7.61,2.35,2.35,0,0,0,.76-3,3.49,3.49,0,0,0-.38-1.53,2.91,2.91,0,0,1-.38-1.14L638,80.15a38.67,38.67,0,0,1,.38-5.9C638.64,72.6,638.89,71.14,639.15,69.87Zm-2.67,71.58v0Zm.76-21.32v22.08h.38c.25-.5.39-3,.39-7.61Q638,121.66,637.24,120.13Zm1.53,58.63V186a12,12,0,0,1,1.14-1c.5-.38.38-.82-.38-1.33a2.16,2.16,0,0,1-.38-1.52ZM643,157.82h.39c0-7.36-.14-12.81-.39-16.37q0-16.36-.37-24.75h-.77Zm.77,90.62h.76q1.51-16.75,1.14-25.13l-.76,12.56ZM644.86,183h-.76q.38,5.72.38,16.37h.38Z"/><path class="cls-1" d="M778.11,141.83a3.88,3.88,0,0,0-1.33,1.14,1.64,1.64,0,0,1-1.33.76,1.51,1.51,0,0,1-1.14-.38L772,145.64l-1.52-1.52a5.78,5.78,0,0,1-4.57,2.28,11.38,11.38,0,0,1-3.43-.38c-.25,0-.63-.25-1.14-.76a3.28,3.28,0,0,0-2.28-1.14c-1,0-1.53-.39-1.53-1.15v-1.52a92.69,92.69,0,0,1,.38-9.52,86.16,86.16,0,0,0-.38-9.52V130q0,10.66-1.14,15.61a5.9,5.9,0,0,1-2.85-.95,3.64,3.64,0,0,1-.58-2.48c-.76-3.81-1.14-5.83-1.14-6.09,0-1.52.06-3.3.19-5.33a48.21,48.21,0,0,0-.19-7.23,37,37,0,0,0-3-14.47q-3.43-8.76-14.47-8.76a64.94,64.94,0,0,0-11.8,1.52,2.56,2.56,0,0,0-2.29,1.15,23.32,23.32,0,0,0-6.85,13.32,45.48,45.48,0,0,0-.76,6.86,50.4,50.4,0,0,0,1.9,13.13q1.9,7,2.28,8.57,2.67,8,11.05,13.32,13.7,8.38,20.56,13l14.84,10.28q10.66,8,16.38,16l6.09,8.76a11.51,11.51,0,0,1,1.33,3.23c.38,1.4.7,2.48,1,3.24q5.32,13.33,4.57,30.84-.37,6.09-1.9,20.18-1.53,12.56-11.81,24.75a93.72,93.72,0,0,1-8,9.13,26.29,26.29,0,0,1-13,8.76c-1.77.51-4.7,1.27-8.75,2.28a68.69,68.69,0,0,1-10.66,1.91,52.43,52.43,0,0,1-16.38-1.91l-12.18-3a27.61,27.61,0,0,1-12.37-4.95,55.59,55.59,0,0,1-10.47-10.66q-3.81-4.57-8.38-15.23a31.74,31.74,0,0,1-1.14-8.38,169.66,169.66,0,0,1-1.14-19.42,74.09,74.09,0,0,1-.38-8.75l-1.15-6.48c0-.5-.38-.76-1.14-.76a2.14,2.14,0,0,1-.38-3.42c1-.51,1.52-1.15,1.52-1.91a6.07,6.07,0,0,0,.76-2.66,5.4,5.4,0,0,1,0-2.86,2.53,2.53,0,0,1,1.91-1.33c.76-.25,1.77-.57,3-1a11.39,11.39,0,0,0,3.05-1.33,2.55,2.55,0,0,1,2.28-1.15h2.67a1.51,1.51,0,0,0,1.14-.38,1.55,1.55,0,0,1,1.14-.38,20.58,20.58,0,0,1,4.57-.38,10.75,10.75,0,0,1,4.57.76,6.43,6.43,0,0,0,2.67.38,3.44,3.44,0,0,1,3.42,3.81l2.67-2.66c.5-.51.88-.77,1.14-.77l.76,1.15v.38a3.78,3.78,0,0,1,2.67,3.23,22.72,22.72,0,0,0,.76,3.62v6.47a31.6,31.6,0,0,0,.76,5.71,35,35,0,0,1-.38,6.1,30.69,30.69,0,0,0,.76,12.18,2.59,2.59,0,0,1,.19,1.71,2.62,2.62,0,0,0,.19,1.72,37.87,37.87,0,0,0,1.53,5,17,17,0,0,0,9.51,7.23,41.33,41.33,0,0,0,9.14,1.52,31.82,31.82,0,0,0,5.71-.76,10.66,10.66,0,0,0,6.86-4.95,18,18,0,0,0,2.28-7.61v-1.15a3.37,3.37,0,0,1,.19-2.47,5.77,5.77,0,0,0,.57-2.09,42.51,42.51,0,0,0,.38-6.48q0-3-.76-9.9c-.25-1.52-.83-4.31-1.71-8.37a32,32,0,0,0-4-10.28,41.1,41.1,0,0,0-6.85-8.38l-8-6.09q-1.53-1.9-6.85-4.57a14,14,0,0,1-3-2.09,14.85,14.85,0,0,0-3-2.1l-9.52-5.71q-13.71-9.9-18.66-16.37-3.81-4.95-8-14.85a75.58,75.58,0,0,1-5.72-22.84,81.29,81.29,0,0,1-.76-9.52,78.1,78.1,0,0,1,1.15-13,46.79,46.79,0,0,1,3-12.18,11.94,11.94,0,0,0,.76-2.28,10.7,10.7,0,0,0,.38-2.29,37.83,37.83,0,0,1,13-19.42l8.37-6.47a31.94,31.94,0,0,1,12.19-5.33,53.1,53.1,0,0,1,10.66-1.52h8.76a95.13,95.13,0,0,1,12.56.76A49.24,49.24,0,0,1,764,70.25,66.24,66.24,0,0,1,777,79.77q8.37,7.62,12.18,22.08a59.16,59.16,0,0,1,1.91,16.38l-.38,12.56-1.15,6.85-1.14,2.29a22.9,22.9,0,0,0-3.42,2.66,4.41,4.41,0,0,1-3.05,1.53,5.73,5.73,0,0,1-3.43-1.53ZM678.74,124.7q-.76,3.81,1.14,15.23t3.81,13.7a80,80,0,0,1-3.62-17.32Q679.13,127,678.74,124.7Zm5.71-8Q685.22,106,692.07,92A49.93,49.93,0,0,0,684.45,116.7Zm3,20.56h.38l-.76-8h-.76Zm-.76,3.81h.38a8.21,8.21,0,0,0,.38,2.66c.5,2,1.33,5,2.47,8.76s2.22,7,3.24,9.52q3,8,13.32,15.61a11.17,11.17,0,0,0-3.42-3.43q-8-7.23-10.28-14.46Q688.25,145.26,686.74,141.07Zm1.9-3.81a85.56,85.56,0,0,0,6.09,22.09h.38Q689.77,141.45,688.64,137.26Zm58.63,156.49v-.39h-.76l-3.81,1a16.26,16.26,0,0,1-3.8.57,10,10,0,0,1-3-.38l-.76.38a1.61,1.61,0,0,0-.76.19.62.62,0,0,1-.76-.19l-3.43-.38A80.87,80.87,0,0,1,721,293a35.47,35.47,0,0,1-8-2.66,33.2,33.2,0,0,1-12.57-12.57q-5.7-9.88-5.71-17.13v-8l-.38-4.57v-1.15a12.23,12.23,0,0,0-.38-5.14c-.51-1.9-.89-3.36-1.14-4.37a.68.68,0,0,0-.76-.77l-1.15,1.15v.38h.77l.76,10.28L691.3,242h-.38v1.14a60.05,60.05,0,0,0,.77,8l.38,13.71a21.34,21.34,0,0,1,.76,4.57,15.19,15.19,0,0,0,.19-4,25.8,25.8,0,0,1-.19-2.86v-6.85c0,.76.12,3.18.38,7.24a26.52,26.52,0,0,0,3,11,41,41,0,0,0,7.24,10.66q6.85,8,14.85,9.14L732.42,296a31.48,31.48,0,0,0,12.19-.76A14.91,14.91,0,0,0,747.27,293.75Zm-51-116.13-3.8-5.33-.76.38a31.73,31.73,0,0,0,4.56,5l5.33,4.95.39-.76-2.29-2.29A16.91,16.91,0,0,0,696.25,177.62Zm27.42-95.56a.35.35,0,0,0-.38-.39,23.63,23.63,0,0,0-15.23,6.86q-9.13,8-12.57,23.6a66.25,66.25,0,0,0-1.14,12.19,81.43,81.43,0,0,0,4.95,27q3.42,9.14,6.09,12.18a41.22,41.22,0,0,0,13.71,11.81L742.32,191q13.33,8,18.28,18.65,5.32,9.92,5.71,16,.77,16,.38,23.61-.77,13.71-8.38,22.08-6.09,6.86-11,8A65.89,65.89,0,0,1,737,281.56a9.43,9.43,0,0,1-5.33,0,61.92,61.92,0,0,0-12.94-2.66,2.16,2.16,0,0,1-1.52-.76l-5.72-6.86q-2.67-4.56-3-5.33a1.54,1.54,0,0,0-.38,1.14,73.74,73.74,0,0,0,5.14,8.57,13,13,0,0,0,6.28,4.38,57.88,57.88,0,0,0,8.38,1.9l3.8.76,4.19.39H737a7.24,7.24,0,0,0,2.86-.58,7.18,7.18,0,0,1,2.85-.57,16,16,0,0,0,4.57-1.52,29.43,29.43,0,0,1,3.43-1.52,17,17,0,0,0,4.19-2.67,54.08,54.08,0,0,0,7.23-8.37q6.86-12.19,5.71-28.18l-.76-9.9a47.41,47.41,0,0,0-1.14-10.66,49.75,49.75,0,0,0-6.47-13.71,80.08,80.08,0,0,0-6.09-8.75,105.38,105.38,0,0,0-9.9-7.24q-14.47-9.88-31.23-20.94a28.71,28.71,0,0,1-10.66-14.08,100.47,100.47,0,0,1-5.71-22.47,79.76,79.76,0,0,1-.76-8.75,48.79,48.79,0,0,1,2.29-14.85l2.28-6.48c.51-1,1.14-2.34,1.9-4a23.14,23.14,0,0,1,2.29-4,50.24,50.24,0,0,1,8-7.81A19.56,19.56,0,0,1,721,82.44ZM699.3,281.94a.34.34,0,0,1,.38-.38l-4.57-8-.38.38Zm-4.19-128.69a29,29,0,0,0,3,9.33q2.65,5.52,4.57,5.9l-4.57-6.85A84.17,84.17,0,0,1,695.11,153.25Zm12.95,128.31c.25,0,.63.26,1.14.76q6.09,6.48,16,6.48l1.52.38v.38l-4.18.38a65.15,65.15,0,0,1,11.8,1.52q3.79.77,11.42-1.52l5.71-2.29c2-.5,3.17-1.52,3.43-3a4.77,4.77,0,0,0-2.48.57,18.48,18.48,0,0,0-2.85,2.47l-1.14-1.52,1.52-.76a32.24,32.24,0,0,0,17.13-15.61,44.29,44.29,0,0,0,6.09-19,34.82,34.82,0,0,0,.38-6.09q0-3.8-.38-7.61c-.25-2.54-.38-5.2-.38-8l-.38-.76c-.51,1.27-.63,2.16-.38,2.66v14.47a42.27,42.27,0,0,1-.38,6.47q-.39,5.34-4.19,14.47A36,36,0,0,1,753,282.7a10.91,10.91,0,0,1-3.42,1.34c-1.53.38-2.67.7-3.43.95a27.68,27.68,0,0,1-9.52,1.52,80,80,0,0,1-8.37-.76,6.67,6.67,0,0,0-2.67-.38,24.24,24.24,0,0,1-2.47-.19,4.05,4.05,0,0,1-2.86-1.71c-.25-.77-1.08-1.34-2.47-1.72a17.32,17.32,0,0,1-2.86-.95l2.67,1.9a22.87,22.87,0,0,1-10.09-7.61,47.21,47.21,0,0,1-6.29-12.95v1.91a40.22,40.22,0,0,0,10.67,17.13q5.7,4.95,15.22,6.09a14.4,14.4,0,0,1,3.43.38A13.79,13.79,0,0,0,734,288q4.18-.37,14.47-1.9a14.25,14.25,0,0,1-9.9,3.43l-4.57-.38a8.55,8.55,0,0,1-2.67-.38,13,13,0,0,1-1.9-.77,56.65,56.65,0,0,1-7.62-.38,33.47,33.47,0,0,1-7.23-2.28q-1.14-.37-5.33-3.81h-1.14q-10.29-11-9.9-23.6l-.38,5a14.11,14.11,0,0,0,1.9,7.61,94.6,94.6,0,0,0,6.09,9.9A21.88,21.88,0,0,0,718,289.56h1.52l-1.9-1.14Q710.72,285.75,708.06,281.56Zm-9.9-30.08h-.38v4.57h.38ZM729,174.57l-.76-.38-13-8.75A23,23,0,0,1,706.15,154q-1.9-4.94-4.95-15.61-.37-1.89-1.14-6.47a50.85,50.85,0,0,1-.76-8.37,22.88,22.88,0,0,1,.38-5c.25-1.27.51-3.17.76-5.72a21.74,21.74,0,0,1,1.53-6.47q3.42-9.89,9.51-15.61l5.72-3.42,1.52-1.15c-.51-.5-.76-.63-.76-.38l-5.72,2.67a1.64,1.64,0,0,1-.76-.19c-.25-.13-.38-.06-.38.19a19.11,19.11,0,0,0-5,5.33,39.5,39.5,0,0,0-7.61,19.8,37,37,0,0,0-.38,6.47,46,46,0,0,0,.76,6.09,78,78,0,0,0,4.57,23.61,44,44,0,0,0,7.61,13.7c.51,0,.77.38.77,1.15a1.55,1.55,0,0,0,.37,1.14l13.33,9.52,23.61,15.23A48.82,48.82,0,0,1,760.6,202a76.69,76.69,0,0,1,8,17.51c0,.26.25.64.77,1.14a45.81,45.81,0,0,0-3.43-10.09q-2.28-4.76-6.47-11.61a54.56,54.56,0,0,1,7.23,11q1.14,2.29,4.95,11.81a2.51,2.51,0,0,0,0-2.67l-5.71-12.94a40.19,40.19,0,0,0-13.33-15.61l-17.13-11.43L729,174.19a.33.33,0,0,0,.38.38l20.18,12.57c.76.51,2.41,1.71,5,3.62a42.54,42.54,0,0,1,6.47,5.9,64.28,64.28,0,0,1,10.28,18.65l1.9,6.1a.34.34,0,0,0,.38-.39,2.21,2.21,0,0,1-.38-1.52A58,58,0,0,0,761,195.9q-5-6.09-15.61-13a199.77,199.77,0,0,1-18.66-12.18L721,167.34l-.38.38Zm-27,73.49h.38c.5-6.34,0-11.43-1.53-15.23h-.38v3.42q-.37-1.14-1.14-1.14h-.76l1.52,3.43a30.1,30.1,0,0,1,1.14,3.81Zm7.23-70.44H710l12.18,8,1.53,1.14a.34.34,0,0,0,.38-.38l-3-2.29q-13.34-8.37-20.56-15.61a.38.38,0,1,0-.76,0l5,5,4.57,4.19a6.67,6.67,0,0,0-1.9-.76c.76,1,2.85,2.6,6.28,4.76s5.64,3.37,6.66,3.62a8.76,8.76,0,0,0-2.28-1.72,7.27,7.27,0,0,1-1.91-1.33ZM703.87,266c-.26-1-.51-2.15-.76-3.43a23.06,23.06,0,0,1-.38-4.56,64.6,64.6,0,0,1-.38-8.38H702a10.92,10.92,0,0,0-.39,3.81Q701.58,261.76,703.87,266ZM702,129.27h.38L702,124.7v4.57ZM704.25,84l1.52.38,3.81-3.43-.38-.38A19.61,19.61,0,0,0,704.25,84Zm7.23,69.67a129.6,129.6,0,0,1-7.23-32.74A73.78,73.78,0,0,0,711.48,153.63Zm-5.33-6.09a.34.34,0,0,1,.38-.38l-1.9-5.33h-.38A36.21,36.21,0,0,0,706.15,147.54ZM704.63,170q.76,1.91,11,9.32t11.8,7c-3.3-2.54-5.08-3.93-5.33-4.19l-14.08-9.9Zm0,69.67,1.52,1.14a.33.33,0,0,0,.38-.38l-1.52-3ZM710,172.29a.33.33,0,0,1-.38.38l2.29,1.9q2.65,1.53,8,5.33,12.18,7.64,17.89,11.81,6.86,4.56,10.86,7.61a24.62,24.62,0,0,1,6.66,8q6.86,11.42,7.23,20.18,0,8.76.38,12.94a71.37,71.37,0,0,1-.76,14.47q-2.28,8.76-5,12.18-7.23,8.78-14.85,9.52c-.76.26-1.58.51-2.47.76a11.71,11.71,0,0,1-3.24.38,61.4,61.4,0,0,1-8-.76,8.27,8.27,0,0,1-2.67-.38,13.11,13.11,0,0,1-1.9-.76q-4.57,0-6.85-2.66-7.25-8.37-7.62-17.14a25.89,25.89,0,0,0,1.9,11q5.32,10.29,13.71,10.66a21,21,0,0,1,4.57.77,20.62,20.62,0,0,0,4.57.76,22.4,22.4,0,0,0,4.57-.57,20.9,20.9,0,0,1,3.8-.57q8.37-1.53,16.38-11.43a16.32,16.32,0,0,0,3.61-6.66,80.72,80.72,0,0,0,1.72-10.85v-.76c-.52-7.62-.76-13.45-.76-17.52A42.8,42.8,0,0,0,759.46,213q-3.81-9.14-9.9-14.09l-13.33-9.14-17.89-11.42-7.24-5.33Zm0-92.52a.33.33,0,0,0,.38.38l6.09-3.42a.34.34,0,0,1-.38-.39ZM730.9,188.28l-.38.76,6.85,4.57c1,.76,3.37,2.42,7,4.95a32.54,32.54,0,0,1,9,9.14Q761,221,760.6,230.92a79.69,79.69,0,0,0,.76,8.76l.38,5.33a36.88,36.88,0,0,1-3.81,16.75q-5.32,12.57-17.89,14.09a10,10,0,0,0-3,.38,13.72,13.72,0,0,1-8-.76,11,11,0,0,0-5-1.14,7.58,7.58,0,0,1-6.47-3.05q-5.72-7.61-5.34-14.85a12.06,12.06,0,0,0-.37-3.42h-.39L711.1,258a20.12,20.12,0,0,0,.77,4.56q3,6.11,3.8,7.24a19.26,19.26,0,0,0,3.62,4,6.9,6.9,0,0,0,4.38,1.33h.76a6,6,0,0,1,2.28.76,19.53,19.53,0,0,0,12.95.76,23.19,23.19,0,0,0,13.71-6.47c2.79-3.3,4.43-5.58,4.94-6.85a41.19,41.19,0,0,0,3.81-20.94,41.4,41.4,0,0,1-.19-6.86,36.12,36.12,0,0,0-.19-6.47,22.76,22.76,0,0,0-1.14-7.23Q756,204.65,743.85,197Zm-15.23-39.21.38-.39-3.42-7.23Q712.63,144.5,715.67,149.07ZM745,297.55v-.38h-.76c-1,.26-2.23.51-3.62.76a28.79,28.79,0,0,1-5.14.38,11.43,11.43,0,0,1-3.43-.38l-9.51-1.52-9.52-1.9a23.07,23.07,0,0,0,6.47,1.9l14.09,2.28A34.73,34.73,0,0,0,745,297.55Zm-28.56-30.84-.38.38a.34.34,0,0,1,.38.38q3.81,5.34,8.38,5.72l4.19,1.14a10.91,10.91,0,0,0,5,1.14l3-.38,3-.38q11-1.14,16.75-12.19,3.44-8.37,3.05-14.84l-1.14-13.33-.77-.76v6.85l.38,6.47a11.67,11.67,0,0,1-.38,3.43,67.12,67.12,0,0,1-2.66,11.42l-1.14,1.15a2.18,2.18,0,0,0-.76,1.52q-.78,3-4.57,4.95a28.7,28.7,0,0,1-5.33,3c-1,.52-3.31,1-6.86,1.53a13.43,13.43,0,0,1-3.8-.38,44.43,44.43,0,0,1-9.52-2.67,13.06,13.06,0,0,1-3.81-1.9ZM718.34,151l-.76.38.38.76q.75,1.9,5.33,5.33a131.82,131.82,0,0,0,14.46,9.9q4.95,3,8.76,5.71c2.54,1.78,4.82,3.3,6.86,4.57l3.42,2.67c1.27,1,3.17,2.35,5.71,4a38.27,38.27,0,0,1,6.09,4.76,54.24,54.24,0,0,1,12.19,18.66,1.57,1.57,0,0,1,.38,1.14l.76-.76-.76-1.52-2.67-4.95q-4.95-12.18-18.27-21.71l-27.41-17.13Q724.43,158.21,721,154Zm.76-72.72V79a125.54,125.54,0,0,1,16.37-1.52,40.82,40.82,0,0,1,16,2.66,39.82,39.82,0,0,0-15.61-3q-5.34,0-9.52.38C723.54,77.74,721.13,78,719.1,78.25ZM777.35,103l1.52,7.23h.77L777.35,103l-1.14-3.81a28.92,28.92,0,0,0-10.66-13.71q-13.34-9.9-25.13-9.9-12.2,0-18.66.38a1.83,1.83,0,0,0,1.91,1,11,11,0,0,1,1.52-.19,21.9,21.9,0,0,0,4-.39,24.71,24.71,0,0,1,4.38-.38,46,46,0,0,1,16.75,1.53,69.75,69.75,0,0,1,14.85,8.37,34.85,34.85,0,0,1,10.66,13.71ZM724.43,88.91v.38l6.09-1.14A32.47,32.47,0,0,0,724.43,88.91Zm9.14,104.32L727.86,189l-.39.76,6.1,3,1.52,1.52,7.61,5.33,1.91,1.53c0-.51-.64-1.27-1.91-2.29Zm-4.19,86.43a10.4,10.4,0,0,0,5.33,1.14c2.79,0,4.69-.5,5.71-1.52a16.6,16.6,0,0,1-11,.38Zm.76,4.57a10.68,10.68,0,0,0,5.33,1.52,12.53,12.53,0,0,0,3.81-.76A80.35,80.35,0,0,0,730.14,284.23ZM754.51,108a25.82,25.82,0,0,0-19-9.52A32.55,32.55,0,0,1,754.51,108ZM735.85,290.7l9.52-1.52q-2.28,1.51-7.62,1.52Zm1.52-121.46L737,170l8.38,5a1.55,1.55,0,0,0,1.14.38ZM752.6,280.8l-.38-.76-9.52,3.81v.76l3-.76,2.28-1.53A22.87,22.87,0,0,0,752.6,280.8Zm-8.37-1.9q6.85-.37,12.18-7.24A38,38,0,0,1,744.23,278.9ZM783.06,92.72a41.73,41.73,0,0,0,1.53,4,21.84,21.84,0,0,1,1.14,3.24h.38l-3.05-6.85-.76-2.29Q778.49,82.44,768.59,76a94,94,0,0,0-12.18-7A23.3,23.3,0,0,0,745,66.83h1.14q15.61,3,29.32,15.61a23.82,23.82,0,0,1,4.76,5.71Q782.3,91.57,783.06,92.72ZM748.8,292.6v.76c1.26,0,2-.12,2.28-.38a74.48,74.48,0,0,0,8-3q5.32-3.44,11.8-11.42a16.06,16.06,0,0,0,3-4.19,63.75,63.75,0,0,0,7.62-30.08,66.06,66.06,0,0,0-1.14-12.18l-.38-1.15h-.38v11.24c0,4.44-.14,8.44-.39,12q-.37,4.95-3.42,13.32A40.54,40.54,0,0,1,769,280c-.52.51-1.59,1.71-3.24,3.62a10.79,10.79,0,0,1-5.9,3.61,2.24,2.24,0,0,0-1.91,1.15,35.06,35.06,0,0,1-7.23,3.8Zm5.71-58.25h-.38a18.78,18.78,0,0,1-.19,2.48,9.5,9.5,0,0,0,.19,3.23,58.39,58.39,0,0,1,.38,7.62,39.83,39.83,0,0,1-3,15.61v.76a.67.67,0,0,0,.76-.76,108.85,108.85,0,0,0,3-10.66,57.14,57.14,0,0,0-.19-10.28Q754.51,236.64,754.51,234.35Zm7.61,37.31a40.47,40.47,0,0,0,6.47-11.42,4.29,4.29,0,0,0-.38,1.9,8.17,8.17,0,0,0,1.53-3l.76-3.05v-.38a2.17,2.17,0,0,1-.38-2.09,4.46,4.46,0,0,0,.38-1.33v-1.91l.76-13.71-.38-1.9-.76-1.9v-4.57l-.38-3c0,1-.07,2.29-.19,3.81a25.45,25.45,0,0,0,.19,5.33l.38,9.52a38.64,38.64,0,0,1-1.53,11.42q-3,11.43-6.47,16l-7.61,7.62.38.38C758.44,276.23,760.85,273.7,762.12,271.66Zm-5-44.92h.76l-1.14-5.33H756Zm4.57,64.34a.33.33,0,0,1-.38-.38L756,293.75A43.49,43.49,0,0,0,761.74,291.08ZM760.6,280.8a.33.33,0,0,1-.38-.38l-3.43,3.81Zm4.57-201,.38-.38-4.95-3a.34.34,0,0,1-.38.39Zm-.38,147a22.58,22.58,0,0,0-2.29-9.52Zm.38,4.56h-.76l.76,8.76h.38A74.4,74.4,0,0,1,765.17,231.3Zm2.66,43a.34.34,0,0,0-.38-.38,8.93,8.93,0,0,0-1.71,2.28,7.51,7.51,0,0,1-1.33,1.91h.38Zm1.15,9.14-.39-.38-3.8,3.42v.38ZM783.44,253a46.36,46.36,0,0,0,.76-7.24q-.76-11.42-.76-16.75a55.1,55.1,0,0,0-4.19-20.94A70,70,0,0,0,769,191l-2.29-2.29v.76A68.88,68.88,0,0,1,780.4,213q2.28,7.62,2.28,11v7.23q.77,9.15.76,14.09Zm-10.28,24.74c.76-.76,1.15-1.26,1.15-1.52A74.52,74.52,0,0,0,778.87,266q4.57-11.42,4.19-20.18L782.3,226l-.38-.76h-.38l.38,9.9a81.39,81.39,0,0,1,.38,9.14,45.7,45.7,0,0,1-.38,6.85,61.45,61.45,0,0,1-5.71,20.18C774.43,274.84,773.41,277,773.16,277.75Zm3.43-28.93H777l-1.14-22.47h-.38Zm0-113.08H777v-8.38h-.38Zm4.19-12.56h.38l-.76-8H780Zm0-31.23a73.89,73.89,0,0,1,6.47,29.7,62.3,62.3,0,0,1-.38,8,42.8,42.8,0,0,0,.76-9.52Q787.63,106.81,780.78,92Z"/><path class="cls-1" d="M854.25,304.79a2.57,2.57,0,0,0-2.28-1.15h-1.9a10.93,10.93,0,0,0-1,1.15,12,12,0,0,1-1,1.14H847a17.65,17.65,0,0,0-5.14,0,37.82,37.82,0,0,1-4.76.38H836l-.76.38a6.68,6.68,0,0,1-1.91.76c-.25,0-.63-.5-1.14-1.52-.25-.51-1.14-1-2.66-1.52l.38,1.52-5.33.38V304a2.26,2.26,0,0,1-2.29-.39,2.55,2.55,0,0,1-.76-1.9V301a.77.77,0,0,1,.19-.57c.13-.13.06-.32-.19-.57a11.76,11.76,0,0,1-.76-4.95v-4.95a87.75,87.75,0,0,1-.19-9.9c.12-2.79.19-5.08.19-6.85a72.23,72.23,0,0,0,.38-8.38l.76-17.9q0-17.13.38-25.5V195.9q0-12.57-.38-18.66V151.35l-.38-20.18q0-16.75-.38-25.13V81.29l.38-8.75h.38a1.55,1.55,0,0,1,.38,1.14h.38a20.78,20.78,0,0,0,.77-4.57l-1.53-.76a3.62,3.62,0,0,1,2.67-.95,5.48,5.48,0,0,1,2.66,1.71,13.21,13.21,0,0,1,1.91-3,5,5,0,0,0,3,1.15,6.88,6.88,0,0,0,5-2.29,39.19,39.19,0,0,1,6.09-.38V62.26l7.24,2.28L850.07,63a2.24,2.24,0,0,1,2.09.95,9.87,9.87,0,0,1,1,3.24c-1.27.25-1.9,1.14-1.9,2.66v21.7l-.38,10.66.38,8.76.38,49.88A1.51,1.51,0,0,0,852,162c0,.26.25.64.76,1.14.76-.76,1.14-1.26,1.14-1.52l-.38-6.09a5.45,5.45,0,0,1,.38-2.29l.38,8.76h.39l-.39-32.36a4.68,4.68,0,0,1,1.91,3.8l-.38,3.43a62.41,62.41,0,0,1,.38,8v8.37a60.39,60.39,0,0,0,.38,8l.76,1.52.76-1.52q-.76-19.8-.76-29.32,0-25.5.38-38.45V76.73l-.38-5A3.23,3.23,0,0,0,855,75.2V84h-.38V73.68a7.55,7.55,0,0,1,.76-3.43c.76-1.26.76-2,0-2.28a3.08,3.08,0,0,1-1.34-2.29,19.29,19.29,0,0,1-.19-2.28h.38l2.29,3.81a.33.33,0,0,1,.38-.38,13.19,13.19,0,0,1-.38-3.81l1.14,1.9a32.56,32.56,0,0,1,.76,6.09,8.82,8.82,0,0,1,0,3.62,7.09,7.09,0,0,0,0,3.24,9.45,9.45,0,0,1,.76,4.19v2.28l-.38,9.14q-.77,9.9-.76,15.23,0,13.32.38,20.18,0,21.69.38,32.74a2.41,2.41,0,0,0,3,3.05l27.79-1.15a1.86,1.86,0,0,1,.77.19.61.61,0,0,0,.76-.19l6.47-1.14c.25,0,.38-.5.38-1.52a45.86,45.86,0,0,0,.38-6.86,45.8,45.8,0,0,0-.38-6.85V124.32l.38-19.42v-16l.38-12.18V68a20.71,20.71,0,0,1,.76-4.57,3.16,3.16,0,0,0,3.05-.76c.5-.51,1.65-.76,3.42-.76a4.48,4.48,0,0,0,3.81-2.29q1.14-1.52,3,0c.76.76,1.27,1,1.52.76a2.43,2.43,0,0,1,2.86.38,10.82,10.82,0,0,0,2.09,1.53l2.29,2.28a2.16,2.16,0,0,0,.38,1.52c1.26-1.26,2.15-1.9,2.66-1.9a17,17,0,0,1,2.67.76l1.52-1.52q0,3.81,2.28,4.57a6.6,6.6,0,0,0,.38-2.67l.39.38,1.14,2.67c1.26-.76,1.9-1,1.9-.76q1.14.38,1.14,2.28l-.38,5.71L935,87l-.38,13.71.38,11.42v14.09l.38,8.38v31.22a81.13,81.13,0,0,0-.76,9.52L935,189.8q-.37,9.91-.38,29.7-.39,6.85-.38,19.8l.38,17.89V270.9l.38,7.62a42.37,42.37,0,0,1,.38,6.47,22.94,22.94,0,0,1-.38,4.95,46.25,46.25,0,0,0-.76,7.23l.38.76a3.62,3.62,0,0,1,0,3.24,7.14,7.14,0,0,0-.76,2.47V304h-.38V292.22a33.77,33.77,0,0,1-.38-6.09l-.76-6.09a32,32,0,0,0-.77-5.71v5.33c0,1.78.06,4,.2,6.66s.44,5.78,1,9.33a13.07,13.07,0,0,1-2.29,8.76c-.25.51-1.27,1.08-3,1.71s-2.8.83-3.05.57l-.76-1.52a.33.33,0,0,1,.38-.38l1.14,1.14a1.39,1.39,0,0,0,.38-2.09c-.51-.89-.63-1.46-.38-1.72h-.76L922,306.69c-.52,1.27-1.28,1.52-2.29.76l-3-1.52a2.67,2.67,0,0,0,.57-1.33,15.59,15.59,0,0,1,.57-2.1L915.93,304a3.08,3.08,0,0,0-1.9-1.15,6.48,6.48,0,0,0-2.66,1.15l-5,2.28-1.91-.38-2.28-.76a1.78,1.78,0,0,0,.19-2.1,5.72,5.72,0,0,1-.57-2.09v-.76a3,3,0,0,0-1.34,1.52,10,10,0,0,0-.19,2.29q-2.28-.76-2.28-2.67l.38-13.71-.38-9.9.38-20.94.38-26.27q.38-4.56.38-13.32a3.49,3.49,0,0,0-.38-1.53,3.38,3.38,0,0,1-.38-1.52L898,203.89c0-1.77-.13-2.79-.38-3s-1.27-.39-3-.39a33,33,0,0,1-5.14-.38,31.74,31.74,0,0,0-4.76-.38l-14.46.38-9.14-.38a4.14,4.14,0,0,0-2.1.38,1.74,1.74,0,0,0-.57,1.53v1.14a6.61,6.61,0,0,1,.38,2.66l-.38,16a2.57,2.57,0,0,0,.76,1.9c.51,1.52.25,2.41-.76,2.66l-.76,1.15a5.37,5.37,0,0,1,.76,3l-.38,5a5.83,5.83,0,0,0,.76,2.29l.38,1.52-.38,18.66a5.74,5.74,0,0,1-.76,2.28h-.38v-11h-.38l-.38,1.9-.38,16.75a81.45,81.45,0,0,0-.76,9.52V292.6l-.38,8a9.67,9.67,0,0,0,.38,3C855.78,304.41,855.27,304.79,854.25,304.79Zm-13.7-189.23.38-1.52q.38-7.23.38-21.32l-.38-3.43.38-15.61-.38-2.29h-.76a6.14,6.14,0,0,0-.76,2.67q-.39,8.39.19,24.37T840.55,115.56Zm.38,3.43h-.76v16.37a54.66,54.66,0,0,0,1.14-10.66A31.89,31.89,0,0,0,840.93,119Zm-.38,19.8v0Zm.38,7.61v0Zm.76,101.66h.38v-9.9h-.38Zm5.71-85.29a.77.77,0,0,1,.19-.57c.13-.12.06-.31-.19-.57,0-2.53-.25-6.6-.76-12.18v-1.91L847,138V125.84a20,20,0,0,0-1.14-7.61,7.84,7.84,0,0,1-.38-3V92.34h.76v11.8H847a61.1,61.1,0,0,0,.19-8.19q-.19-3.61-.19-6.28a60.07,60.07,0,0,1,.76-11l.38,1.9V95q0,2.67-.19,6.66a87.29,87.29,0,0,0,.19,9.71c.25,4.32.32,8.13.19,11.42s-.19,6.1-.19,8.38a82.37,82.37,0,0,0,1.15,13.71,11.33,11.33,0,0,1-.77,7.23v1.52l.77,7.24.38,1.9h.76v-2.28q-.76-28.94-.76-43.41l.38-19.79-.38-11.05V71.78l.38-3q.75-1.91,0-2.28c-2.54.51-3.81,1.39-3.81,2.66v.76c0,.51-.13.76-.38.76q-1.14,1.53-1.14,5.33v79.58l.38,7.61A5.3,5.3,0,0,1,847.4,162.77ZM845.5,135v-9.52h.38V135Zm2.66,44.16c-.76-.76-1.27-1-1.52-.76l-1.14.38,1.14,1.14Zm-1.9,20.94h-.76q0,14.47.38,21.71.75,14.84.38,22.08H847Zm1.52,71.58c0,2.29-.06,6.28-.19,12a80.2,80.2,0,0,1-1.71,15.42h.76a56.89,56.89,0,0,0,1.52-13.71ZM847,110.23h-.76v6.09a14.36,14.36,0,0,0,.76-1.9,7.33,7.33,0,0,0,.38-2.29A3,3,0,0,0,847,110.23Zm.76,118.41V200.46H847Q847,220.65,847.78,228.64Zm0,18.66h.38V235.11h-.38Zm1.91-20.56,1.14-3.81-.76-1.52-.76.38Zm1.14-26.28h-.76v9.9h.76Zm-.76,78.44h.76v-6.48h-.76Zm.38,5.71h-.38v4.95h.38Zm2.66-84.53h-.76a18.38,18.38,0,0,0-.38,4.19q0,8,.76,23.23a3,3,0,0,0,.19.95.86.86,0,0,1-.19,1,5.15,5.15,0,0,0-1.52,3.81,6.67,6.67,0,0,0,.76,3,14.84,14.84,0,0,1,.76,5.33l-.38,6.48L852,264.81l-.38,17.51v19.42l.38.76a2.72,2.72,0,0,0,1.52-3,19.58,19.58,0,0,0-.19-2.29,6,6,0,0,1,.19-2.66l.38-7.62v-19h.77v6.85H855q0-14.08.76-42.26H855V234c-.52-3.81-.83-7.17-1-10.09s-.19-5.26-.19-7V202Zm1.14,104.71a1.79,1.79,0,0,1,.2,1.33c-.14.38-.45.45-1,.19l-1.9-.76A15.61,15.61,0,0,1,854.25,304.79Zm-1.52-127.17-.38,1.52.76.76.38-1.14Zm.76-51.4V138h-.38v-11.8Zm.76-57.11a28.18,28.18,0,0,0-.38,4.57,21.74,21.74,0,0,1-.38,4.19q.38-.77,0-3.81A7.66,7.66,0,0,1,854.25,69.11Zm0,192.27v0ZM855,86.24a81.39,81.39,0,0,1,.38,9.14L855,114a78.92,78.92,0,0,0,.38,9.14h-.76V86.24ZM857.68,285c0,.76.06,2.09.19,4a8.08,8.08,0,0,1-1.33,5.14,82.59,82.59,0,0,0,.76-9.14ZM857.3,179.9l2.29.39q19-.76,28.55-.77a72.23,72.23,0,0,1,8.38-.38c.25,0,.63-.25,1.14-.76-.51-.5-.89-.76-1.14-.76-.26-.25-.45-.31-.57-.19a.8.8,0,0,1-.58.19q-4.18,0-14.08.76h-3.81v-.76l13.33-.38v-.76H890a80,80,0,0,1-9.13.76H860.73Q857.67,177.24,857.3,179.9Zm.38,21.33h-.38v4.18h.38Zm-.38,19h.38v-11.8h-.38ZM898,168.48v-1.14a8,8,0,0,0-3-.38h-9.9l-6.47.38a38.07,38.07,0,0,0-6.47.38,45.7,45.7,0,0,0-6.85.38l-3.43-.38a6.28,6.28,0,0,0-2.67.76ZM859.2,191.71v1.14a103.84,103.84,0,0,0,25.51-1.52Zm1.91-28.18h0Zm11.42,24.75v-.38H861.87v.38Zm16.37-7.61v-.38l-25.51.76v.38ZM868,171.53v.38q19-.76,28.94-.76v-.38Q887,170.77,868,171.53Zm.38,3.81v.76l7.62-.38v-.38Zm6.86,12.56h22.46v-.38a45.8,45.8,0,0,0-6.85-.38Q885.85,187.14,875.2,187.9ZM897.66,170q-.76-.76-10.28-.77T876,170Zm-16.75,20.17v.39h9.52v-.39Zm5.71-27.41h0Zm14.85,130.59h1.14l-1.91-29.31h-.38Zm4.19,3.05h.76V271.28h.38v6.86h.76V277l-1.14-19.41a8,8,0,0,0-.39-3,20.57,20.57,0,0,0-.37-3.81,17.23,17.23,0,0,1-.39-3.42l-.76-22.09V202h-.38Q903,221.4,903,240.44a517,517,0,0,0,2.67,54.45Zm-.77-208.64a.34.34,0,0,0-.38-.38v5ZM906,263.29a61.31,61.31,0,0,0-.76-7.62H906l.39,7.62Zm0-30.84a.34.34,0,0,1,.39-.38V210.74H906ZM913.65,202h-.38q0,9.52-.76,27.79h-.38V213.41a1.54,1.54,0,0,0-.38,1.14l-.38,29.32q.38,14.85,1.9,42.64l.38,7.62h1.14a1.59,1.59,0,0,1,.38-1.15,1.55,1.55,0,0,0,.38-1.14l-.38-10.28-1.52-29.7q-.39-7.22-.19-12.37c.12-3.43.19-6.28.19-8.57V202Zm-.38-89.86h-.38l-1.14,40.74h.76Q912.51,139.55,913.27,112.13Zm-1.52,97.47h.38v-8h-.38Zm1.9-48L915.17,92q-.76,2.67-1.33,21.33t-.57,35Q913.27,159.73,913.65,161.63Zm6.47,113.08a29.38,29.38,0,0,0,0,6.66q.38,4,.38,6.66a20.46,20.46,0,0,1-.38,4.57l-1.52-22.84h-.76a198.06,198.06,0,0,0,1.9,25.51,10.56,10.56,0,0,0,1.52-2.67l-.38-9.51ZM919,228.26v0ZM921.26,245h.39V219.88h-.39Zm1.15,24H922l1.14,24.36h.76Zm4.19,26.65h.76a131.06,131.06,0,0,0-.76-19.42l-.39-9.9-1.14-30.08-.38,22.47A301.63,301.63,0,0,0,926.6,295.65Zm-1.15-132.88q0-17.9.76-52.92h-.38q-.76,21.33-.76,32.74Q925.07,155.92,925.45,162.77Zm-.38,58.64h.38V200.85h-.38Zm2.67,46.83v0Zm.76,8.37a56.65,56.65,0,0,0-.38,7.62q0,9.13,1.14,11.42h.38Zm1.52,27a19.37,19.37,0,0,0,1.14-6.85v-2.66Z"/><path class="cls-1" d="M449.18,378.83c-1.58.15-3.05.28-4.42.38h4.42Z"/><path class="cls-1" d="M444.39,379.21v0l.37,0Z"/><path class="cls-1" d="M411.86,387a6.64,6.64,0,0,0,2.6-.19h-4.4A8.69,8.69,0,0,1,411.86,387Z"/><path class="cls-1" d="M410.26,379.21a4.85,4.85,0,0,1-1.39.38V380h3.19C411.52,379.21,410.92,379,410.26,379.21Z"/><path class="cls-1" d="M914.23,380h3.19v-.38a5,5,0,0,1-1.4-.38C915.36,379,914.76,379.21,914.23,380Z"/><path class="cls-1" d="M936.18,381.12a53.71,53.71,0,0,0-1.2-11.05c-.27-1.78-.2-3,.2-3.61s1.66-1.21,3.79-1.72l-3.19-.38c-1.6-.51-2.14-1.27-1.6-2.28a10.25,10.25,0,0,1,.4-1.9,2.68,2.68,0,0,1,2.39-1.91c-2.93-2.28-5.32-3.43-7.18-3.43H902.65l-7.58.39q-8.39.36-25.15.38c-5,.24-12.5.38-22.35.38h-4.79q-8.38-.39-25.54-.38-26.34,0-39.51.38l-26,.38L742.6,356l-29.53-.38L652,356l-38.8-.37-29.54.38-9.18.38L548.56,356q-13.17-.39-39.51-.38-17.18,0-25.55.38h-4.79c-9.84,0-17.3-.14-22.35-.38q-16.75,0-25.14-.38l-7.59-.39H396.49c-1.85,0-4.25,1.15-7.18,3.43a2.68,2.68,0,0,1,2.39,1.91,10.25,10.25,0,0,1,.4,1.9c.54,1,0,1.77-1.59,2.28l-3.2.38c2.14.51,3.4,1.08,3.8,1.72s.46,1.83.2,3.61a53.71,53.71,0,0,0-1.2,11.05v.76c-.8.76-.86,1.39-.2,1.9a3.09,3.09,0,0,0,1.4.76q2.38,1.14,0,2.67c-1.06.5-1.2,1.26-.4,2.28a8,8,0,0,0,.4,2.67q8,0,12.37.38l12.77.38H640.76q14.82,0,22.38-.37c5.06.24,12.51.37,22.39.37h224.3l12.78-.38q4.38-.39,12.37-.38a8.29,8.29,0,0,0,.4-2.67c.8-1,.66-1.78-.4-2.28q-2.4-1.53,0-2.67a3.13,3.13,0,0,0,1.4-.76c.66-.51.59-1.14-.2-1.9ZM901.85,361.7a94.1,94.1,0,0,1,14.77,1.14q4.43.46,7.63.65l-32-1A88.22,88.22,0,0,1,901.85,361.7Zm-52.28,1.9h18l14.37-.38,11.17-.38q8.38,0,24.35.76l12,.38a4.46,4.46,0,0,1,2.8,1.53v.38l-1.6-.38.4,2.28a9.32,9.32,0,0,0-2.4-1.52,2.28,2.28,0,0,0-1.59-.76c-2.4-.26-5.52-.52-9.38-.77s-8.45-.38-13.77-.38q-9.18-.37-27.54-.38H849.57Zm39.51,9.14h20.36v.38H889.08Zm-26.74-1.52v-.38h31.93v.38Zm9.18-4.19,25.14-.38a189.23,189.23,0,0,1,29.14,1.9Zm-110.16,8h42.31v.77c-3.19.24-7.85.38-14,.38l-28.34-.38Zm-14.77.38h11.58v.39l-11.58.76Zm-73.83,1.15h9.18l-4.39-.76h-4.39q22.35-.78,33.92-.77,18.76,0,34.33,1.53h-9.58l-14.77-.38h-8.18a30.1,30.1,0,0,0-9,1.14q-18.76,0-27.94.38l-3.59.38ZM619.2,375q11.58,0,33.93.77h-4.39l-4.39.76h9.18l4.38,1,.12.38-3.7-.24q-9.2-.39-27.94-.38a30.15,30.15,0,0,0-9-1.14h-8.18l-14.77.38h-9.58Q600.45,375,619.2,375Zm-51.08.38h11.57v1.15l-11.57-.76Zm-45.5-.38h42.3v.77l-28.33.38c-6.13,0-10.78-.14-14-.38ZM424.43,361.7a88,88,0,0,1,9.58.76l-32,1q3.21-.18,7.63-.65A94.06,94.06,0,0,1,424.43,361.7Zm-30.33,3.81a4.46,4.46,0,0,1,2.79-1.53l12-.38q16-.77,24.34-.76l11.18.38,14.37.38h18V364H450q-18.37,0-27.54.38-8,0-13.77.38t-9.38.77a2.31,2.31,0,0,0-1.6.76,9.06,9.06,0,0,0-2.39,1.52l.4-2.28-1.6.38Zm22.75,7.23H437.2v.38H416.85Zm-16.36-4.19a189.18,189.18,0,0,1,29.13-1.9l25.15.38ZM432,371.22v-.38H464v.38Zm-38.32,4.95v-.77h2q2,1.52,4.79,0a7.16,7.16,0,0,1,2.79-.38,38.52,38.52,0,0,0,6.39-.38q14.35-.76,21.55-.76l15.16.38h26.35l33.52.38q4.39,0,13.17.76v.39h-7.18l-35.92-.39q-20.76-.76-31.13-.38-7.59,0-23.55.77l-10.78.38a75.47,75.47,0,0,0-9.18.38l-6,.38A7.49,7.49,0,0,1,393.7,376.17Zm4,12.18,4-.76Q399.7,391,397.69,388.35Zm4-6.85v-.38a6.52,6.52,0,0,1,2.8-.77l-.4-.76a6.63,6.63,0,0,0-2.8.76,7,7,0,0,1-2,.39c-.53,0-1.06-.52-1.6-1.53l.4-.38q6.78-1.53,10-1.14a14,14,0,0,0,4-.76l3.19-.38q16.77-.78,25.55-.76,39.51,0,59.47.38l43.9.38a73.54,73.54,0,0,0,8.78.19c2.39-.14,4.39-.19,6-.19l2.79.38v.38h-43.5v.76h54.28c-.54-.51-.8-.89-.8-1.14a86.76,86.76,0,0,1,9.58.38h.8a2.06,2.06,0,0,0,2.19,1.33,16.81,16.81,0,0,1,1.8-.19q7.18,0,22.35-.76l.8-.38h-8.39v-.38l18-.38v.38l-1.19.76h9.18v.38q-5.19.38-15.17.38-16,.76-24,.76l-18.36-.38q-11.58.38-34.32.38H494.68l-18-.38-18,.38q-4.8,0-14.37.76v-.73c-3.07.23-5.61.35-7.58.35H418.05a6.63,6.63,0,0,0-2.8.76l-1.19.39Q406.07,381.49,401.68,381.5Zm53.09-.38v.38H434.41v-.38Zm-37.12.38v-.38h13.17v.38Zm8.38,1.9h-12V383h11.57C425.89,383,426,383.14,426,383.4ZM492.68,388a22.5,22.5,0,0,1-4.79-.38v-.76c2.4.25,5.85.38,10.38.38A16.42,16.42,0,0,1,492.68,388ZM638,388H619.2l-18,.38-27.94.38q-6,0-18-.76v-.38q19.56.38,58.68-1.14v-.77H604l-21.16.39c-2.39,0-5.58-.07-9.58-.19s-8.64-.07-14,.19H518.63l-27.94-.39q-17.18,0-25.95.39h-9.58c-2.13,0-4.78-.07-8-.19a100,100,0,0,0-10.77.19l-11.18.38c-2.39.24-6,.38-10.77.38h67.85v.76l-77.43,1.52,1.59-2.28c0-.26-.14-.38-.4-.38l1.6-.38L446,384.92l32.72-.38h8.78c2.13,0,4.72-.06,7.79-.19a102.22,102.22,0,0,1,10.57.19l31.53.38H577.3q12,0,35.92-.76h21.55q14.37,0,21.15-.38l-9,1.9-10.57-.76q-6,0-18.76.76a.35.35,0,0,0-.4.39l2.79.38h24.49Zm200.43-.38a22.44,22.44,0,0,1-4.79.38,16.4,16.4,0,0,1-5.58-.76q6.78,0,10.37-.38Zm5.59,0v-.76h67.85c-4.79,0-8.38-.14-10.78-.38l-11.17-.38a100.14,100.14,0,0,0-10.78-.19c-3.19.12-5.85.19-8,.19h-9.58q-8.77-.39-25.94-.39l-27.94.39H767q-8-.39-14-.19c-4,.12-7.18.19-9.58.19l-21.15-.39h-10v.77q39.12,1.51,58.67,1.14V388q-12,.75-18,.76L725,388.35l-18-.38H652.82l-6.53-1.52h60l2.8-.38a.35.35,0,0,0-.4-.39q-12.76-.76-18.76-.76l-43,.76,9-1.9c4.53.25,26,.38,35.6.38h21.55q23.94.76,35.92.76H788.9l31.53-.38a102.37,102.37,0,0,1,10.58-.19q4.59.19,7.78.19h8.78l32.73.38,38.32,1.15,1.59.38c-.26,0-.4.12-.4.38l1.6,2.28Zm27.54-6.09v-.38h20.35v.38Zm37.12,0H895.47v-.38h13.17Zm3.59,1.52v.38h-12c0-.26.13-.38.4-.38Zm12.37,4.57,4,.76Q926.6,391,924.6,387.59Zm2.4-6.85a7,7,0,0,1-2-.39,6.59,6.59,0,0,0-2.79-.76l-.4.76a6.48,6.48,0,0,1,2.79.77v.38q-4.38,0-12.37-.76l-1.2-.39a6.59,6.59,0,0,0-2.79-.76H889.48q-3,0-7.58-.35V380q-9.58-.77-14.37-.76l-18-.38-18,.38H791.3q-22.75,0-34.33-.38l-18.36.38q-8,0-24-.76-10,0-15.16-.38v-.38h9.18l-1.2-.76v-.38l18,.38v.38h-8.38l.8.38q15.17.75,22.35.76a16.47,16.47,0,0,1,1.79.19,2.07,2.07,0,0,0,2.2-1.33h.8a86.64,86.64,0,0,1,9.58-.38c0,.25-.27.63-.8,1.14h54.28v-.76h-43.5v-.38l2.79-.38c1.59,0,3.59.05,6,.19a73.7,73.7,0,0,0,8.79-.19l43.9-.38q20-.39,59.47-.38,8.78,0,25.54.76l3.2.38a13.92,13.92,0,0,0,4,.76q3.19-.39,10,1.14l.4.38C928.06,380.22,927.53,380.74,927,380.74Zm5.58-4.57a7.48,7.48,0,0,1-2,.76l-6-.38a75.47,75.47,0,0,0-9.18-.38l-10.77-.38q-16-.78-23.55-.77-10.38-.37-31.13.38l-35.92.39h-7.19v-.39q8.79-.76,13.17-.76l33.53-.38H879.9l15.17-.38q7.18,0,21.55.76A38.35,38.35,0,0,0,923,375a7.23,7.23,0,0,1,2.79.38c1.86,1,3.45,1,4.79,0h2Z"/><path class="cls-1" d="M881.52,379.21l.38,0v0Z"/><path class="cls-1" d="M914.42,387a8.76,8.76,0,0,1,1.8-.19h-4.39A6.59,6.59,0,0,0,914.42,387Z"/><path class="cls-1" d="M877.11,379.21h4.41c-1.37-.1-2.83-.23-4.41-.38Z"/><path class="cls-2" d="M258.63,485.66,233.9,583H218.57l-22.51-79.54L173.55,583H158.22l-24.86-97.36h13.95L166,568.39,189,485.66H203L226,568.11l18.79-82.45Z"/><path class="cls-2" d="M308.07,485.66V583H295.5V485.66Z"/><path class="cls-2" d="M410,485.66v10.22H382.51V583H369.94V495.88H342.46V485.66Z"/><path class="cls-2" d="M519.23,485.66V583h-12.7V538H457.08v45H444.52V485.66h12.56v42.12h49.45V485.66Z"/><path class="cls-2" d="M696.15,485.38,672.81,583H643.54L627.93,517.7,612.19,583H582.91l-23.34-97.64h25.68l12.57,70.71L615,485.38h25.82l17.13,70.71,12.7-70.71Z"/><path class="cls-2" d="M802.15,490.29A46.86,46.86,0,0,1,819.9,508.1a54.23,54.23,0,0,1-.07,51.58A47,47,0,0,1,802,577.57a51.59,51.59,0,0,1-49.85,0,47,47,0,0,1-17.82-17.89,54,54,0,0,1,0-51.58,47.25,47.25,0,0,1,17.82-17.81,51.8,51.8,0,0,1,50,0Zm-43.5,23.06q-6.84,7.53-6.84,20.51t6.84,20.44q6.84,7.59,18.44,7.59t18.36-7.59q6.91-7.59,6.91-20.44t-6.84-20.44q-6.84-7.59-18.43-7.6T758.65,513.35Z"/><path class="cls-2" d="M971.54,486.07V583H947.92V522.4l-21,60.62H906.49l-21.13-60.76V583H861.74V486.07h28.87L917,553.61l25.82-67.54Z"/><path class="cls-2" d="M1033.55,504.17v20.44h33v17.81h-33V564.1h37.15V583h-60.77V485.38h60.77v18.79Z"/><path class="cls-2" d="M1192.92,583h-23.61l-39.5-59.93V583h-23.62V485.38h23.62l39.5,60.49V485.38h23.61Z"/></svg>