<?xml version="1.0" encoding="UTF-8"?>
<svg width="196px" height="62px" viewBox="0 0 196 62" version="1.1" xmlns="http://www.w3.org/2000/svg" xmlns:xlink="http://www.w3.org/1999/xlink">
    <defs>
        <polygon id="path-1" points="0 61.8609865 195.979391 61.8609865 195.979391 0.0218251121 0 0.0218251121"></polygon>
    </defs>
    <g id="mobile" stroke="none" stroke-width="1" fill="none" fill-rule="evenodd">
        <g id="topic-landing-mobile" transform="translate(-20.000000, -51.000000)">
            <g id="Group-53" transform="translate(20.000000, 50.000000)">
                <path d="M15.499864,2.48923942 L2,30.4892394 L5.78787253,30.4892394 L9.01278034,23.7559405 L21.9870836,23.7559405 L25.2134876,30.4892394 L29,30.4892394 L15.499864,2.48923942 Z M15.499864,9.82545857 L20.525062,20.6915911 L10.4757541,20.6915911 L15.499864,9.82545857 Z" id="Fill-1" fill="#062049"></path>
                <polygon id="Fill-2" fill="#062049" points="40 14.5736215 61.4402104 34.0839304 61.4402104 14.4892394 65 14.4892394 65 42.4892394 43.563087 22.9789305 43.563087 42.2871772 40 42.2871772"></polygon>
                <g id="Group-52" transform="translate(0.000000, 0.489239)">
                    <path d="M88.0531682,6.72769507 C86.9719436,4.92788789 85.5808764,4.00734081 83.3809937,4.00734081 C81.0615202,4.00734081 78.5088936,5.57749776 78.5088936,8.10740359 C78.5088936,10.3684574 80.7506961,11.5554933 82.5690938,12.2440269 L84.6555545,13.0498879 C88.7871167,14.6592466 91.8747476,16.9207175 91.8747476,21.751296 C91.8747476,27.001 87.7839837,30.7572825 82.5690938,30.7572825 C77.851915,30.7572825 74.1804901,27.3093318 73.5627677,22.6694798 L77.2341926,21.9026816 C77.1957777,25.0842825 79.7477033,27.3849552 82.8790767,27.3849552 C86.0072255,27.3849552 88.2442612,24.7767848 88.2442612,21.751296 C88.2442612,18.6471256 85.7366389,17.3042556 83.225091,16.2712466 L81.2156003,15.4261839 C77.8913113,14.0096368 74.8763041,12.1319821 74.8763041,8.10740359 C74.8763041,3.43099103 79.0521697,0.632233184 83.4581039,0.632233184 C86.7005159,0.632233184 89.3640409,2.20503139 90.9484443,5.00114798 L88.0531682,6.72769507 Z" id="Fill-3" fill="#062049"></path>
                    <mask id="mask-2" fill="white">
                        <use xlink:href="#path-1"></use>
                    </mask>
                    <g id="Clip-6"></g>
                    <polygon id="Fill-5" fill="#062049" mask="url(#mask-2)" points="99.549774 42.6258341 103.180401 42.6258341 103.180401 13.7289686 99.549774 13.7289686"></polygon>
                    <path d="M120.093588,17.573052 C124.307588,17.0745498 127.089583,13.6263211 127.089583,9.4870565 C127.089583,6.72763946 125.698656,4.00742422 123.262535,2.58573363 C120.943342,1.28415067 118.161068,1.24522691 115.571007,1.24522691 L111.163811,1.24522691 L111.163811,30.1450117 L114.799906,30.1450117 L114.799906,17.9197516 L116.304255,17.9197516 L124.886475,30.1450117 L129.29255,30.1450117 L120.093588,17.573052 Z M114.799906,4.46616861 L115.764904,4.46616861 C119.358799,4.46616861 123.687623,5.11828072 123.687623,9.64108341 C123.687623,14.2396484 119.668641,14.9305453 115.958241,14.9305453 L114.799906,14.9305453 L114.799906,4.46616861 L114.799906,4.46616861 Z" id="Fill-7" fill="#062049" mask="url(#mask-2)"></path>
                    <polygon id="Fill-8" fill="#062049" mask="url(#mask-2)" points="154.500575 25.3800058 154.500575 13.7290103 158.133024 13.7290103 158.133024 42.6258758 154.500575 42.6258758 154.500575 28.7521942 140.620607 28.7521942 140.620607 42.6258758 136.988858 42.6258758 136.988858 13.7290103 140.620607 13.7290103 140.620607 25.3800058"></polygon>
                    <polygon id="Fill-9" fill="#062049" mask="url(#mask-2)" points="188.34184 58.2780677 35.3718312 58.2780677 35.3718312 46.1341305 162.228695 46.1341305 162.228695 10.1525834 150.911308 10.1525834 150.911308 21.6375969 144.501771 21.6375969 144.501771 10.1525834 132.9438 10.1525834 132.9438 33.3696372 106.855751 33.3696372 106.855751 10.221117 95.6036967 10.221117 95.6036967 33.3838166 69.4539599 33.3838166 69.4539599 10.2065206 57.9129528 10.2065206 57.9517883 24.7199422 42.9607325 10.2065206 35.5414735 10.2065206 35.5414735 33.3696372 0 33.3696372 0 33.1958704 35.3662232 33.1958704 35.3662232 10.0327538 43.0322346 10.0327538 43.0576109 10.0574982 57.7754163 24.3062381 57.7371416 10.0327538 69.6292103 10.0327538 69.6292103 33.2100498 95.4284464 33.2100498 95.4284464 10.0473502 107.031001 10.0473502 107.031001 33.1958704 132.768549 33.1958704 132.768549 9.97881659 144.677021 9.97881659 144.677021 21.46383 150.736057 21.46383 150.736057 9.97881659 162.403946 9.97881659 162.403946 46.3078973 35.5470815 46.3078973 35.5470815 58.1043009 188.34184 58.1043009"></polygon>
                    <path d="M188.257215,58.2154839 L188.265767,61.5883673 L195.566697,58.2089502 L188.257215,54.7900534 L188.257215,58.2154839 Z M188.090937,61.8609726 L188.081965,58.2156229 L188.081965,54.5159188 L195.979306,58.2097843 L188.090937,61.8609726 Z" id="Fill-10" fill="#062049" mask="url(#mask-2)"></path>
                    <path d="M41.1023637,55.7970668 L40.7712106,53.8995332 C40.7116255,53.5646498 40.6849874,53.2235108 40.6454509,52.8882103 L40.6189531,52.8882103 C40.5724066,53.2235108 40.5393193,53.5646498 40.4864638,53.8995332 L40.1949874,55.7970668 L41.1023637,55.7970668 Z M41.8573422,57.2155601 L41.3604724,57.2155601 L41.1751276,56.1979816 L40.1154938,56.1979816 L39.9367385,57.2155601 L39.4401491,57.2155601 L40.4201491,52.264735 L40.8572936,52.264735 L41.8573422,57.2155601 Z" id="Fill-11" fill="#062049" mask="url(#mask-2)"></path>
                    <path d="M43.5319084,56.7953502 L43.6643977,56.7953502 C44.5583147,56.7953502 44.6708956,56.1714578 44.6708956,54.7398973 C44.6708956,53.0392067 44.4921402,52.6850004 43.6112618,52.6850004 L43.5319084,52.6850004 L43.5319084,56.7953502 Z M43.0682661,52.2647628 L43.5717253,52.2647628 C44.5252275,52.2647628 45.1477167,52.3829242 45.1477167,54.7398973 C45.1477167,56.6770498 44.8298827,57.2154489 43.6048126,57.2154489 L43.0682661,57.2154489 L43.0682661,52.2647628 Z" id="Fill-12" fill="#062049" mask="url(#mask-2)"></path>
                    <path d="M47.702867,57.2155045 L47.2923605,57.2155045 L46.2857225,52.2648184 L46.7625436,52.2648184 L47.4182604,55.8694372 C47.4447582,55.9942713 47.4712561,56.3162265 47.4976137,56.539065 L47.5241116,56.539065 C47.54402,56.3162265 47.5706581,55.9875987 47.5902861,55.8694372 L48.2394134,52.2648184 L48.709505,52.2648184 L47.702867,57.2155045 Z" id="Fill-13" fill="#062049" mask="url(#mask-2)"></path>
                    <path d="M51.067814,55.7970668 L50.7368011,53.8995332 C50.6770758,53.5646498 50.6504378,53.2235108 50.6109013,52.8882103 L50.5844034,52.8882103 C50.5379971,53.2235108 50.5047697,53.5646498 50.4519142,53.8995332 L50.1604378,55.7970668 L51.067814,55.7970668 Z M51.8227926,57.2155601 L51.3260629,57.2155601 L51.140578,56.1979816 L50.0810844,56.1979816 L49.9021888,57.2155601 L49.4055994,57.2155601 L50.3855994,52.264735 L50.8228841,52.264735 L51.8227926,57.2155601 Z" id="Fill-14" fill="#062049" mask="url(#mask-2)"></path>
                    <path d="M55.1133634,57.2155045 L54.709166,57.2155045 L53.5834979,53.8864103 C53.5105937,53.6828946 53.4710572,53.4595 53.4113319,53.2495897 L53.3849742,53.2495897 C53.4046023,53.5714058 53.4378298,53.8864103 53.4378298,54.2082265 L53.4378298,57.2155045 L53.0337725,57.2155045 L53.0337725,52.2648184 L53.4378298,52.2648184 L54.5834063,55.7054013 C54.6431316,55.8761099 54.6895379,56.0469574 54.735804,56.2172489 L54.7555722,56.2172489 C54.7423934,56.0006659 54.709166,55.7776883 54.709166,55.5606883 L54.709166,52.2648184 L55.1133634,52.2648184 L55.1133634,57.2155045 Z" id="Fill-15" fill="#062049" mask="url(#mask-2)"></path>
                    <path d="M58.5625147,57.0775753 C58.3902086,57.1957368 58.1452787,57.281091 57.9268466,57.281091 C56.7544918,57.281091 56.5823259,55.7643152 56.5823259,54.9174453 C56.5823259,54.1161717 56.6088237,52.1987592 57.9731127,52.1987592 C58.1584575,52.1987592 58.4102572,52.2450507 58.5625147,52.3565395 L58.5625147,52.8621314 C58.37717,52.7371583 58.2114532,52.6455484 57.9797021,52.6455484 C57.1718681,52.6455484 57.0591471,53.8078399 57.0591471,54.7268578 C57.0591471,55.3048758 57.0591471,56.8348578 57.9464747,56.8348578 C58.1717765,56.8348578 58.3837594,56.7362973 58.5625147,56.6114632 L58.5625147,57.0775753 Z" id="Fill-16" fill="#062049" mask="url(#mask-2)"></path>
                    <polygon id="Fill-17" fill="#062049" mask="url(#mask-2)" points="59.971794 57.215574 60.4352961 57.215574 60.4352961 52.2648879 59.971794 52.2648879"></polygon>
                    <path d="M64.1236993,57.2155045 L63.7196421,57.2155045 L62.5938338,53.8864103 C62.5210698,53.6828946 62.4813931,53.4595 62.421808,53.2495897 L62.3953102,53.2495897 C62.4149382,53.5714058 62.4481657,53.8864103 62.4481657,54.2082265 L62.4481657,57.2155045 L62.0442486,57.2155045 L62.0442486,52.2648184 L62.4481657,52.2648184 L63.5938824,55.7054013 C63.6534675,55.8761099 63.6998738,56.0469574 63.7461399,56.2172489 L63.7660484,56.2172489 C63.7528695,56.0006659 63.7196421,55.7776883 63.7196421,55.5606883 L63.7196421,52.2648184 L64.1236993,52.2648184 L64.1236993,57.2155045 Z" id="Fill-18" fill="#062049" mask="url(#mask-2)"></path>
                    <path d="M66.6787934,54.6020099 L67.8179207,54.6020099 L67.8179207,55.5147722 C67.8179207,56.2963058 67.7781039,57.2810771 66.744968,57.2810771 C65.692204,57.2810771 65.592802,56.184539 65.592802,54.6217498 C65.592802,53.4532027 65.7318807,52.1987453 66.7915144,52.1987453 C67.3875059,52.1987453 67.6854315,52.5928484 67.8113313,53.1313865 L67.3541382,53.3084897 C67.3012827,53.0130861 67.175523,52.6455345 66.8112827,52.6455345 C66.1226189,52.6517901 66.069483,53.7094045 66.069483,54.582548 C66.069483,56.4146063 66.3015144,56.8348439 66.784925,56.8348439 C67.3078721,56.8348439 67.3541382,56.4536691 67.3541382,55.3966108 L67.3541382,55.0222475 L66.6787934,55.0222475 L66.6787934,54.6020099 Z" id="Fill-19" fill="#062049" mask="url(#mask-2)"></path>
                    <path d="M73.5513413,57.2155045 L73.1471439,57.2155045 L72.0214758,53.8864103 C71.9487119,53.6828946 71.9090352,53.4595 71.8494501,53.2495897 L71.8229522,53.2495897 C71.8425803,53.5714058 71.8758077,53.8864103 71.8758077,54.2082265 L71.8758077,57.2155045 L71.4718907,57.2155045 L71.4718907,52.2648184 L71.8758077,52.2648184 L73.0215245,55.7054013 C73.0811096,55.8761099 73.1275159,56.0469574 73.173782,56.2172489 L73.1936904,56.2172489 C73.1803714,56.0006659 73.1471439,55.7776883 73.1471439,55.5606883 L73.1471439,52.2648184 L73.5513413,52.2648184 L73.5513413,57.2155045 Z" id="Fill-20" fill="#062049" mask="url(#mask-2)"></path>
                    <polygon id="Fill-21" fill="#062049" mask="url(#mask-2)" points="76.7355562 52.6850143 75.6295162 52.6850143 75.6295162 54.4315794 76.7026092 54.4315794 76.7026092 54.851817 75.6295162 54.851817 75.6295162 56.7953641 76.7355562 56.7953641 76.7355562 57.2154628 75.1661542 57.2154628 75.1661542 52.2647767 76.7355562 52.2647767"></polygon>
                    <path d="M80.8272455,57.2155045 L80.4035602,57.2155045 L79.9003814,53.8797377 C79.8737433,53.7093072 79.8604243,53.3411996 79.8407963,53.0720695 L79.8141582,53.0720695 C79.7876604,53.3411996 79.7677519,53.7157018 79.7412541,53.8797377 L79.1585817,57.2155045 L78.734616,57.2155045 L77.940101,52.2648184 L78.4169222,52.2648184 L78.8605159,55.5741726 C78.8936031,55.8168901 78.9135116,56.0662803 78.9400094,56.3094148 L78.9666475,56.3094148 C78.9997348,56.0662803 79.019503,55.8168901 79.0593199,55.5741726 L79.6354029,52.2648184 L80.0327305,52.2648184 L80.5095516,55.5741726 C80.5426389,55.8168901 80.5757262,56.0662803 80.6088134,56.3094148 L80.6353113,56.3094148 C80.6618092,56.0662803 80.6818578,55.8168901 80.7213943,55.5741726 L81.2380323,52.2648184 L81.7079837,52.2648184 L80.8272455,57.2155045 Z" id="Fill-22" fill="#062049" mask="url(#mask-2)"></path>
                    <path d="M86.9644289,53.0459211 C86.7659053,52.8226655 86.547333,52.6455623 86.229499,52.6455623 C85.7658567,52.6455623 85.5074675,53.0261812 85.5074675,53.4464188 C85.5074675,54.0244368 85.9314332,54.2937058 86.3619883,54.5825758 C86.7858137,54.8779794 87.2096392,55.1929839 87.2096392,55.876096 C87.2096392,56.5984099 86.7394074,57.2811049 85.9577908,57.2811049 C85.6797737,57.2811049 85.3951671,57.2024233 85.169725,57.0317148 L85.169725,56.433957 C85.3817079,56.6573516 85.659725,56.8348717 85.9778395,56.8348717 C86.4678395,56.8348717 86.7394074,56.4078224 86.732818,55.9615892 C86.7394074,55.3835713 86.3088524,55.1273695 85.8851671,54.8321049 C85.4612014,54.543096 85.0309268,54.2212798 85.0309268,53.5120332 C85.0309268,52.849078 85.4414332,52.1987731 86.1763631,52.1987731 C86.4744289,52.1987731 86.7262286,52.2976117 86.9644289,52.4616475 L86.9644289,53.0459211 Z" id="Fill-23" fill="#062049" mask="url(#mask-2)"></path>
                    <polygon id="Fill-24" fill="#062049" mask="url(#mask-2)" points="90.2351754 52.6850143 89.4867863 52.6850143 89.4867863 57.2154628 89.0230037 57.2154628 89.0230037 52.6850143 88.2750352 52.6850143 88.2750352 52.2647767 90.2351754 52.2647767"></polygon>
                    <path d="M92.5130235,55.7970668 L92.1820106,53.8995332 C92.1222853,53.5646498 92.0957874,53.2235108 92.0561107,52.8882103 L92.0296129,52.8882103 C91.9832066,53.2235108 91.9499791,53.5646498 91.8971236,53.8995332 L91.6057874,55.7970668 L92.5130235,55.7970668 Z M93.268002,57.2155601 L92.7712724,57.2155601 L92.5857874,56.1979816 L91.5262938,56.1979816 L91.3475385,57.2155601 L90.8509491,57.2155601 L91.8308089,52.264735 L92.2680936,52.264735 L93.268002,57.2155601 Z" id="Fill-25" fill="#062049" mask="url(#mask-2)"></path>
                    <path d="M96.5585588,57.2155045 L96.1543614,57.2155045 L95.0286933,53.8864103 C94.9557891,53.6828946 94.9162526,53.4595 94.8565273,53.2495897 L94.8301697,53.2495897 C94.8497977,53.5714058 94.8830252,53.8864103 94.8830252,54.2082265 L94.8830252,57.2155045 L94.4791082,57.2155045 L94.4791082,52.2648184 L94.8830252,52.2648184 L96.0286017,55.7054013 C96.088327,55.8761099 96.1347333,56.0469574 96.1809994,56.2172489 L96.2007677,56.2172489 C96.1875888,56.0006659 96.1543614,55.7776883 96.1543614,55.5606883 L96.1543614,52.2648184 L96.5585588,52.2648184 L96.5585588,57.2155045 Z" id="Fill-26" fill="#062049" mask="url(#mask-2)"></path>
                    <path d="M98.6367897,56.7953502 L98.769279,56.7953502 C99.663196,56.7953502 99.775917,56.1714578 99.775917,54.7398973 C99.775917,53.0392067 99.5971617,52.6850004 98.7162833,52.6850004 L98.6367897,52.6850004 L98.6367897,56.7953502 Z M98.1732876,52.2647628 L98.6766066,52.2647628 C99.6301087,52.2647628 100.252738,52.3829242 100.252738,54.7398973 C100.252738,56.6770498 99.9347639,57.2154489 98.709834,57.2154489 L98.1732876,57.2154489 L98.1732876,52.2647628 Z" id="Fill-27" fill="#062049" mask="url(#mask-2)"></path>
                    <path d="M102.980124,55.7970668 L102.648971,53.8995332 C102.589386,53.5646498 102.562748,53.2235108 102.523212,52.8882103 L102.496714,52.8882103 C102.450167,53.2235108 102.41708,53.5646498 102.364225,53.8995332 L102.072748,55.7970668 L102.980124,55.7970668 Z M103.735103,57.2155601 L103.238233,57.2155601 L103.052888,56.1979816 L101.993255,56.1979816 L101.814499,57.2155601 L101.31791,57.2155601 L102.29791,52.264735 L102.735054,52.264735 L103.735103,57.2155601 Z" id="Fill-28" fill="#062049" mask="url(#mask-2)"></path>
                    <path d="M105.409669,54.4182063 L105.575246,54.4182063 C106.224233,54.4182063 106.330224,54.1952287 106.330224,53.5449238 C106.330224,52.7636682 106.091744,52.6849865 105.502482,52.6849865 L105.409669,52.6849865 L105.409669,54.4182063 Z M104.946027,57.215574 L104.946027,52.2647489 L105.442897,52.2647489 C106.13801,52.2647489 106.807045,52.3170179 106.807045,53.5254619 C106.807045,54.1556099 106.667967,54.7728296 105.866722,54.7992422 L106.972482,57.215574 L106.482482,57.215574 L105.422988,54.7925695 L105.409669,54.7925695 L105.409669,57.215574 L104.946027,57.215574 Z" id="Fill-29" fill="#062049" mask="url(#mask-2)"></path>
                    <path d="M108.746408,56.7953502 L108.878897,56.7953502 C109.772814,56.7953502 109.885535,56.1714578 109.885535,54.7398973 C109.885535,53.0392067 109.70678,52.6850004 108.825902,52.6850004 L108.746408,52.6850004 L108.746408,56.7953502 Z M108.282906,52.2647628 L108.786225,52.2647628 C109.739727,52.2647628 110.362216,52.3829242 110.362216,54.7398973 C110.362216,56.6770498 110.044382,57.2154489 108.819452,57.2154489 L108.282906,57.2154489 L108.282906,52.2647628 Z" id="Fill-30" fill="#062049" mask="url(#mask-2)"></path>
                    <path d="M113.559764,53.0459211 C113.361241,52.8226655 113.142668,52.6455623 112.824834,52.6455623 C112.361192,52.6455623 112.102803,53.0261812 112.102803,53.4464188 C112.102803,54.0244368 112.526769,54.2937058 112.957324,54.5825758 C113.381289,54.8779794 113.804975,55.1929839 113.804975,55.876096 C113.804975,56.5984099 113.334743,57.2811049 112.553126,57.2811049 C112.275109,57.2811049 111.990502,57.2024233 111.765201,57.0317148 L111.765201,56.433957 C111.977183,56.6573516 112.255201,56.8348717 112.573175,56.8348717 C113.063175,56.8348717 113.334743,56.4078224 113.328153,55.9615892 C113.334743,55.3835713 112.904328,55.1273695 112.480502,54.8321049 C112.056537,54.543096 111.626262,54.2212798 111.626262,53.5120332 C111.626262,52.849078 112.036769,52.1987731 112.771698,52.1987731 C113.069764,52.1987731 113.321564,52.2976117 113.559764,52.4616475 L113.559764,53.0459211 Z" id="Fill-31" fill="#062049" mask="url(#mask-2)"></path>
                    <polygon id="Fill-32" fill="#062049" mask="url(#mask-2)" points="117.406103 57.215574 117.869605 57.215574 117.869605 52.2648879 117.406103 52.2648879"></polygon>
                    <path d="M121.557896,57.2155045 L121.153699,57.2155045 L120.028031,53.8864103 C119.955126,53.6828946 119.91559,53.4595 119.856005,53.2495897 L119.829507,53.2495897 C119.849135,53.5714058 119.882363,53.8864103 119.882363,54.2082265 L119.882363,57.2155045 L119.478445,57.2155045 L119.478445,52.2648184 L119.882363,52.2648184 L121.028079,55.7054013 C121.087664,55.8761099 121.134071,56.0469574 121.180337,56.2172489 L121.200105,56.2172489 C121.186926,56.0006659 121.153699,55.7776883 121.153699,55.5606883 L121.153699,52.2648184 L121.557896,52.2648184 L121.557896,57.2155045 Z" id="Fill-33" fill="#062049" mask="url(#mask-2)"></path>
                    <path d="M125.827429,54.4182063 L125.993146,54.4182063 C126.641993,54.4182063 126.747985,54.1952287 126.747985,53.5449238 C126.747985,52.7636682 126.509504,52.6849865 125.920242,52.6849865 L125.827429,52.6849865 L125.827429,54.4182063 Z M125.363927,57.215574 L125.363927,52.2647489 L125.860657,52.2647489 C126.55577,52.2647489 127.224946,52.3170179 127.224946,53.5254619 C127.224946,54.1556099 127.085727,54.7728296 126.284623,54.7992422 L127.390242,57.215574 L126.900242,57.215574 L125.840748,54.7925695 L125.827429,54.7925695 L125.827429,57.215574 L125.363927,57.215574 Z" id="Fill-34" fill="#062049" mask="url(#mask-2)"></path>
                    <polygon id="Fill-35" fill="#062049" mask="url(#mask-2)" points="130.270166 52.6850143 129.164126 52.6850143 129.164126 54.4315794 130.237079 54.4315794 130.237079 54.851817 129.164126 54.851817 129.164126 56.7953641 130.270166 56.7953641 130.270166 57.2154628 128.700764 57.2154628 128.700764 52.2647767 130.270166 52.2647767"></polygon>
                    <path d="M132.216258,54.4249206 L132.395014,54.4249206 C133.044141,54.4249206 133.123635,54.1884587 133.143403,53.5516381 C133.143403,52.868804 132.958058,52.6850283 132.309211,52.6850283 L132.216258,52.6850283 L132.216258,54.4249206 Z M131.752756,57.2154767 L131.752756,52.2647906 L132.269394,52.2647906 C132.984556,52.2647906 133.620364,52.3304049 133.620364,53.5516381 C133.620364,54.5102749 133.282622,54.8451583 132.335569,54.8451583 L132.216258,54.8451583 L132.216258,57.2154767 L131.752756,57.2154767 Z" id="Fill-36" fill="#062049" mask="url(#mask-2)"></path>
                    <path d="M135.400754,54.4182063 L135.56647,54.4182063 C136.215317,54.4182063 136.321309,54.1952287 136.321309,53.5449238 C136.321309,52.7636682 136.082968,52.6849865 135.493706,52.6849865 L135.400754,52.6849865 L135.400754,54.4182063 Z M134.937252,57.215574 L134.937252,52.2647489 L135.433981,52.2647489 C136.129234,52.2647489 136.79827,52.3170179 136.79827,53.5254619 C136.79827,54.1556099 136.659191,54.7728296 135.857947,54.7992422 L136.963566,57.215574 L136.473566,57.215574 L135.414213,54.7925695 L135.400754,54.7925695 L135.400754,57.215574 L134.937252,57.215574 Z" id="Fill-37" fill="#062049" mask="url(#mask-2)"></path>
                    <path d="M138.605101,54.739939 C138.605101,55.6132215 138.638189,56.8348717 139.35349,56.8348717 C140.068512,56.8348717 140.10188,55.6132215 140.10188,54.739939 C140.10188,53.8666565 140.068512,52.6455623 139.35349,52.6455623 C138.638189,52.6126161 138.605101,53.8666565 138.605101,54.739939 M140.578561,54.739939 C140.578561,55.6657686 140.512386,57.2811049 139.35349,57.2811049 C138.26091,57.2811049 138.12842,55.8958359 138.12842,54.739939 C138.12842,53.4858987 138.293997,52.1987731 139.35349,52.1987731 C140.479299,52.1987731 140.578561,53.6500735 140.578561,54.739939" id="Fill-38" fill="#062049" mask="url(#mask-2)"></path>
                    <path d="M142.504688,56.7953502 L142.637318,56.7953502 C143.531094,56.7953502 143.643815,56.1714578 143.643815,54.7398973 C143.643815,53.0392067 143.46506,52.6850004 142.584182,52.6850004 L142.504688,52.6850004 L142.504688,56.7953502 Z M142.041186,52.2647628 L142.544505,52.2647628 C143.498147,52.2647628 144.120637,52.3829242 144.120637,54.7398973 C144.120637,56.6770498 143.802803,57.2154489 142.577732,57.2154489 L142.041186,57.2154489 L142.041186,52.2647628 Z" id="Fill-39" fill="#062049" mask="url(#mask-2)"></path>
                    <path d="M147.656095,55.6460426 C147.656095,56.5589439 147.583051,57.2811188 146.60964,57.2811188 C145.609592,57.2811188 145.563185,56.5328094 145.563185,55.6460426 L145.563185,52.2648184 L146.026968,52.2648184 L146.026968,55.6200471 C146.026968,56.4406435 146.073094,56.8348857 146.60964,56.8348857 C147.139457,56.8348857 147.192313,56.4406435 147.192313,55.6200471 L147.192313,52.2648184 L147.656095,52.2648184 L147.656095,55.6460426 Z" id="Fill-40" fill="#062049" mask="url(#mask-2)"></path>
                    <path d="M151.078679,57.0775753 C150.906373,57.1957368 150.661443,57.281091 150.443011,57.281091 C149.270796,57.281091 149.09863,55.7643152 149.09863,54.9174453 C149.09863,54.1161717 149.124988,52.1987592 150.489277,52.1987592 C150.674621,52.1987592 150.926421,52.2450507 151.078679,52.3565395 L151.078679,52.8621314 C150.893334,52.7371583 150.727617,52.6455484 150.495866,52.6455484 C149.688032,52.6455484 149.575311,53.8078399 149.575311,54.7268578 C149.575311,55.3048758 149.575311,56.8348578 150.462639,56.8348578 C150.68794,56.8348578 150.899923,56.7362973 151.078679,56.6114632 L151.078679,57.0775753 Z" id="Fill-41" fill="#062049" mask="url(#mask-2)"></path>
                    <polygon id="Fill-42" fill="#062049" mask="url(#mask-2)" points="154.104075 52.6850143 153.355966 52.6850143 153.355966 57.2154628 152.892183 57.2154628 152.892183 52.6850143 152.144215 52.6850143 152.144215 52.2647767 154.104075 52.2647767"></polygon>
                    <polygon id="Fill-43" fill="#062049" mask="url(#mask-2)" points="155.361405 57.215574 155.824907 57.215574 155.824907 52.2648879 155.361405 52.2648879"></polygon>
                    <path d="M158.526538,57.2155045 L158.115892,57.2155045 L157.109674,52.2648184 L157.586355,52.2648184 L158.241932,55.8694372 C158.268149,55.9942713 158.294928,56.3162265 158.321145,56.539065 L158.348064,56.539065 C158.367411,56.3162265 158.394189,55.9875987 158.414098,55.8694372 L159.062805,52.2648184 L159.533317,52.2648184 L158.526538,57.2155045 Z" id="Fill-44" fill="#062049" mask="url(#mask-2)"></path>
                    <polygon id="Fill-45" fill="#062049" mask="url(#mask-2)" points="162.393276 52.6850143 161.287236 52.6850143 161.287236 54.4315794 162.360189 54.4315794 162.360189 54.851817 161.287236 54.851817 161.287236 56.7953641 162.393276 56.7953641 162.393276 57.2154628 160.824015 57.2154628 160.824015 52.2647767 162.393276 52.2647767"></polygon>
                    <polygon id="Fill-46" fill="#062049" mask="url(#mask-2)" points="168.139848 57.2155045 167.676486 57.2155045 167.676486 54.6612713 166.530629 54.6612713 166.530629 57.2155045 166.067407 57.2155045 166.067407 52.2648184 166.530629 52.2648184 166.530629 54.2410336 167.676486 54.2410336 167.676486 52.2648184 168.139848 52.2648184"></polygon>
                    <polygon id="Fill-47" fill="#062049" mask="url(#mask-2)" points="171.317908 52.6850143 170.211868 52.6850143 170.211868 54.4315794 171.284821 54.4315794 171.284821 54.851817 170.211868 54.851817 170.211868 56.7953641 171.317908 56.7953641 171.317908 57.2154628 169.748646 57.2154628 169.748646 52.2647767 171.317908 52.2647767"></polygon>
                    <path d="M174.06495,55.7970668 L173.733657,53.8995332 C173.674212,53.5646498 173.647854,53.2235108 173.608037,52.8882103 L173.581399,52.8882103 C173.535133,53.2235108 173.502046,53.5646498 173.44891,53.8995332 L173.157434,55.7970668 L174.06495,55.7970668 Z M174.819789,57.2155601 L174.323339,57.2155601 L174.137995,56.1979816 L173.078221,56.1979816 L172.899465,57.2155601 L172.402876,57.2155601 L173.382876,52.264735 L173.81974,52.264735 L174.819789,57.2155601 Z" id="Fill-48" fill="#062049" mask="url(#mask-2)"></path>
                    <polygon id="Fill-49" fill="#062049" mask="url(#mask-2)" points="176.494635 56.7953502 177.580767 56.7953502 177.580767 57.2154489 176.031413 57.2154489 176.031413 52.2647628 176.494635 52.2647628"></polygon>
                    <polygon id="Fill-50" fill="#062049" mask="url(#mask-2)" points="180.163663 52.6850143 179.415274 52.6850143 179.415274 57.2154628 178.951912 57.2154628 178.951912 52.6850143 178.203663 52.6850143 178.203663 52.2647767 180.163663 52.2647767"></polygon>
                    <polygon id="Fill-51" fill="#062049" mask="url(#mask-2)" points="183.493966 57.2155045 183.030604 57.2155045 183.030604 54.6612713 181.884747 54.6612713 181.884747 57.2155045 181.421526 57.2155045 181.421526 52.2648184 181.884747 52.2648184 181.884747 54.2410336 183.030604 54.2410336 183.030604 52.2648184 183.493966 52.2648184"></polygon>
                </g>
            </g>
        </g>
    </g>
</svg>