<?xml version="1.0" encoding="utf-8"?>
<!-- Generator: Adobe Illustrator 21.0.1, SVG Export Plug-In . SVG Version: 6.00 Build 0)  -->
<svg version="1.1" id="Layer_1" xmlns="http://www.w3.org/2000/svg" xmlns:xlink="http://www.w3.org/1999/xlink" x="0px" y="0px"
	 viewBox="0 0 204 38.5" style="enable-background:new 0 0 204 38.5;" xml:space="preserve">
<style type="text/css">
	.st0{fill:#1C2674;}
	.st1{fill:#00A6E2;}
</style>
<g>
	<rect x="44.9808" y="5.7805" class="st0" width="6.145" height="27.3846"/>
	<path class="st0" d="M55.3741,5.7805h13.3118c8.6477,0,12.2135,2.996,12.2135,8.7996c0,3.1863-1.5927,8.3447-11.2269,8.3447
		h-8.1543v10.2403h-6.144V5.7805 M61.5181,18.449h7.1678c3.2627,0,5.841-0.9484,5.841-3.907c0-3.7168-3.4128-4.2857-6.9403-4.2857
		h-6.0685V18.449z"/>
	<path class="st0" d="M83.251,5.7805h13.3128c8.6477,0,12.2144,2.996,12.2144,8.7996c0,3.1863-1.5927,8.3447-11.2269,8.3447H89.396
		v10.2403h-6.145V5.7805 M89.396,18.449h7.1678c3.2628,0,5.8419-0.9484,5.8419-3.907c0-3.7168-3.4137-4.2857-6.9413-4.2857H89.396
		V18.449z"/>
	<polyline class="st0" points="131.1172,5.7805 131.1172,10.2563 116.8189,10.2563 116.8189,16.9319 130.3208,16.9319 
		130.3208,21.4076 116.8189,21.4076 116.8189,33.1651 110.6729,33.1651 110.6729,5.7805 131.1172,5.7805 	"/>
	<path class="st0" d="M32.2497,29.5851c-0.5306,0.2084-1.0473,0.2944-1.5272,0.2285c-0.6118-0.089-1.7724-0.8824-1.0425-1.6242
		c0.7342-0.7438,0.9928-1.7418,0.9861-2.9138c-0.0119-2.1719-1.3871-4.5064-3.6986-3.9873c-2.2991,0.5172-3.2479,2.278-3.2359,4.45
		c0.0096,1.6519,1.3254,3.4166,2.4855,3.8726c0.3131,0.7753,0.4082,1.3795-0.4909,2.301c-1.5955,1.6385-4.8563,1.9693-6.1904,1.9693
		c-6.9494,0-13.0805-3.1699-16.7131-7.9956c2.5032,7.2328,9.3694,12.4275,17.4521,12.4275c9.6453,0,17.5611-7.3954,18.3909-16.8231
		C38.4621,23.7995,35.1339,28.457,32.2497,29.5851"/>
	<path class="st1" d="M20.0325,2.6923c9.7097-0.0105,17.0946,7.2424,18.7058,16.0502c0-0.2686-0.0019-0.5392-0.0143-0.8106
		C38.291,7.833,29.6705,0.2559,19.5703,0.691C9.4676,1.1239,1.7109,9.4045,2.1464,19.5034c0.011,0.2715,0.0315,0.5411,0.0549,0.8107
		c0.1315-1.3781,0.3982-2.7361,0.7715-4.0562c0.9809,0.6878,2.0301,1.2858,3.1322,1.801c-0.1648,1.4985-0.229,3.006-0.1983,4.3507
		c0.0005-0.4158,0.2452-1.9798,0.8279-4.0657c1.3895,0.5979,2.8545,1.062,4.3721,1.3961c-0.1161,2.6466,0.1252,5.2306,0.7118,7.6664
		c0.064-1.7542,0.1882-4.7541,0.4512-7.4264c1.1376,0.1973,2.2977,0.325,3.4711,0.3781c2.9845,0.1358,5.5599,0.1567,7.6186-0.8489
		c-1.5181,0.2466-3.1538,0.3422-4.8922,0.262c-2.0414-0.0918-4.0871-0.3772-6.0804-0.868c0.1291-1.088,0.2849-2.0798,0.4752-2.847
		c0.1237-0.4985,0.2552-0.9793,0.391-1.4511c2.3856,0.4608,4.7956,0.5593,6.9097,0.1416c-2.1873-0.0497-4.4434-0.4097-6.6435-1.0296
		c0.5019-1.5927,1.0788-3.0362,1.736-4.3611c1.5319,0.1678,3.0376,0.1281,4.4285-0.2036c-1.2585-0.0353-2.6595-0.2151-4.0614-0.5019
		C16.8357,6.3809,18.2969,4.4546,20.0325,2.6923z M12.1907,4.4971c-0.5961,0.706-1.2049,1.5425-1.8373,2.5205
		C9.937,6.834,9.5407,6.6437,9.1789,6.4464C10.0967,5.6955,11.1056,5.0458,12.1907,4.4971z M8.2229,7.2824
		c0.5034,0.238,1.022,0.4578,1.5481,0.6658C9.1574,8.96,8.5193,10.1029,7.8477,11.3997c-0.704-0.39-1.3909-0.8045-2.0448-1.259
		C6.5132,9.1072,7.3176,8.1451,8.2229,7.2824z M3.4068,14.8578c0.4258-1.1959,0.9579-2.3435,1.585-3.4295
		c0.7046,0.4422,1.4684,0.8599,2.2838,1.2409c-0.4311,1.1481-0.7543,2.5176-0.9789,3.9481
		C5.2963,16.0977,4.3293,15.5137,3.4068,14.8578z M11.1759,18.5604c-1.3881-0.4059-2.7431-0.9135-4.048-1.532
		c0.3785-1.1873,0.8561-2.4821,1.4468-3.8029c1.0554,0.4211,2.1633,0.7825,3.2932,1.0674
		C11.5301,15.7225,11.2964,17.1489,11.1759,18.5604z M12.1152,13.2848c-1.022-0.3475-2.0258-0.7481-2.9951-1.215
		c0.6061-1.2231,1.3092-2.443,2.1266-3.594c0.782,0.2524,1.575,0.4593,2.3703,0.6199
		C13.0248,10.4284,12.5153,11.8231,12.1152,13.2848z M11.8877,7.616c1.4377-1.8273,3.1866-3.4133,5.2922-4.462
		c-1.2155,1.5496-2.2952,3.2551-3.1906,5.1106C13.2652,8.0729,12.5621,7.8539,11.8877,7.616z"/>
	<rect x="136.0663" y="5.7986" class="st0" width="0.5735" height="6.4604"/>
	<path class="st0" d="M137.9619,9.0011c0-0.4904-0.0268-0.9722-0.0353-1.4626h0.4989c0.0182,0.2132,0.0268,0.3518,0.0373,0.694
		h0.0191c0.1109-0.2036,0.415-0.7582,1.2027-0.7582c1.3049,0,1.3049,1.305,1.3049,1.6204v3.1642h-0.5373V9.0757
		c0-0.3241,0-1.1023-0.8785-1.1023c-0.6568,0-1.0736,0.6204-1.0736,1.3518v2.9338h-0.5382V9.0011"/>
	<path class="st0" d="M142.9788,6.4287v1.1099h0.9636v0.4999h-0.9636v3.0725c0,0.3795,0.065,0.7141,0.5191,0.7141
		c0.2485,0,0.3422-0.0564,0.4445-0.1033v0.5372c-0.1301,0.0459-0.3709,0.065-0.6204,0.065c-0.694,0-0.8804-0.5372-0.8804-1.0649
		V8.0385h-0.7027V7.5385h0.7027V6.595L142.9788,6.4287"/>
	<path class="st0" d="M145.0514,10.0747c0,1.7504,1.1213,1.7504,1.3336,1.7504c0.3049,0,0.7495-0.1492,1.0181-0.3901l0.0277,0.6204
		c-0.2217,0.1205-0.5372,0.2686-1.1013,0.2686c-1.8507,0-1.8507-1.953-1.8507-2.4252c0-1.7771,0.8795-2.4244,1.6739-2.4244
		c1.3709,0,1.5085,1.4531,1.5085,2.6003H145.0514 M147.0885,9.5748c0-1.2495-0.5286-1.6013-0.9627-1.6013
		c-0.7312,0-1.0744,0.9904-1.0744,1.6013H147.0885z"/>
	<path class="st0" d="M148.6248,9.0011c0-0.4904-0.0278-0.9722-0.0363-1.4626h0.499c0.0086,0.2782,0.0277,0.5554,0.0373,0.7504
		h0.0191c0.3422-0.6759,0.74-0.8146,1.2571-0.8146v0.5736c-0.8498,0-1.2389,0.3699-1.2389,1.2399v2.9711h-0.5372V9.0011"/>
	<path class="st0" d="M151.1514,9.0011c0-0.4904-0.0277-0.9722-0.0363-1.4626h0.4991c0.0191,0.2132,0.0277,0.3518,0.0373,0.694
		h0.0181c0.1109-0.2036,0.4168-0.7582,1.2036-0.7582c1.3049,0,1.3049,1.305,1.3049,1.6204v3.1642h-0.5363V9.0757
		c0-0.3241,0-1.1023-0.8804-1.1023c-0.6568,0-1.0727,0.6204-1.0727,1.3518v2.9338h-0.5372V9.0011"/>
	<path class="st0" d="M158.2599,11.2037c0,0.3518,0.0278,0.7045,0.0545,1.0554h-0.4809l-0.0363-0.6758h-0.0201
		c-0.3241,0.5181-0.7113,0.7408-1.3221,0.7408c-0.7313,0-1.3145-0.6022-1.3145-1.3699c0-1.5085,1.6013-1.5352,2.2762-1.5352h0.3432
		c0-0.5937,0-1.4455-0.9809-1.4455c-0.6309,0-1.13,0.4445-1.1854,0.4914l-0.0832-0.5745c0.4445-0.24,0.7773-0.4159,1.2954-0.4159
		c1.454,0,1.454,1.2218,1.454,1.564V11.2037 M157.76,9.8807c-1.1109,0-2.0457,0-2.0457,1.0735c0,0.3977,0.2963,0.8709,0.8699,0.8709
		c0.2505,0,1.1759-0.1033,1.1759-1.3891V9.8807z"/>
	<path class="st0" d="M160.2302,6.4287v1.1099h0.9636v0.4999h-0.9636v3.0725c0,0.3795,0.065,0.7141,0.5191,0.7141
		c0.2486,0,0.3412-0.0564,0.4445-0.1033v0.5372c-0.13,0.0459-0.3709,0.065-0.6204,0.065c-0.694,0-0.8804-0.5372-0.8804-1.0649
		V8.0385h-0.7027V7.5385h0.7027V6.595L160.2302,6.4287"/>
	<path class="st0" d="M161.9711,5.66h0.6472v0.8327h-0.6472V5.66 M162.0255,7.5385h0.5372v4.7205h-0.5372V7.5385z"/>
	<path class="st0" d="M163.5713,9.8988c0-1.1845,0.3901-2.4244,1.7686-2.4244c1.3785,0,1.7675,1.2399,1.7675,2.4244
		s-0.389,2.4252-1.7675,2.4252C163.9614,12.324,163.5713,11.0833,163.5713,9.8988 M166.5338,9.8988c0-0.3795,0-1.9253-1.194-1.9253
		c-1.195,0-1.195,1.5458-1.195,1.9253s0,1.9263,1.195,1.9263C166.5338,11.8251,166.5338,10.2783,166.5338,9.8988z"/>
	<path class="st0" d="M168.0701,9.0011c0-0.4904-0.0277-0.9722-0.0363-1.4626h0.499c0.0181,0.2132,0.0277,0.3518,0.0373,0.694
		h0.0181c0.1119-0.2036,0.4168-0.7582,1.2036-0.7582c1.3049,0,1.3049,1.305,1.3049,1.6204v3.1642h-0.5362V9.0757
		c0-0.3241,0-1.1023-0.8795-1.1023c-0.6568,0-1.0735,0.6204-1.0735,1.3518v2.9338h-0.5373V9.0011"/>
	<path class="st0" d="M175.1786,11.2037c0,0.3518,0.0278,0.7045,0.0545,1.0554h-0.4818l-0.0353-0.6758h-0.0191
		c-0.3241,0.5181-0.7123,0.7408-1.3231,0.7408c-0.7313,0-1.3155-0.6022-1.3155-1.3699c0-1.5085,1.6023-1.5352,2.2771-1.5352h0.3432
		c0-0.5937,0-1.4455-0.9809-1.4455c-0.6299,0-1.13,0.4445-1.1863,0.4914l-0.0831-0.5745c0.4445-0.24,0.7772-0.4159,1.2963-0.4159
		c1.454,0,1.454,1.2218,1.454,1.564V11.2037 M174.6787,9.8807c-1.1117,0-2.0467,0-2.0467,1.0735
		c0,0.3977,0.2973,0.8709,0.8708,0.8709c0.2505,0,1.1759-0.1033,1.1759-1.3891V9.8807z"/>
	<rect x="176.4176" y="5.3178" class="st0" width="0.5362" height="6.9413"/>
	<path class="st0" d="M136.0663,16.2521h1.2121c1.2112,0,1.9712,0.5181,1.9712,1.823c0,1.3977-0.9722,1.824-1.8048,1.824h-0.8049
		v2.8135h-0.5735V16.2521 M136.6398,19.3619h0.5822c0.8517,0,1.4168-0.2868,1.4168-1.2868c0-1.2857-0.9636-1.2857-1.4999-1.2857
		h-0.499V19.3619z"/>
	<rect x="140.2391" y="15.7713" class="st0" width="0.5362" height="6.9413"/>
	<path class="st0" d="M144.9051,21.6572c0,0.3518,0.0267,0.7036,0.0554,1.0555h-0.4818l-0.0373-0.6759h-0.0181
		c-0.3241,0.5181-0.7131,0.7409-1.3241,0.7409c-0.7312,0-1.3135-0.6023-1.3135-1.37c0-1.5085,1.6003-1.5362,2.2771-1.5362h0.3412
		c0-0.5927,0-1.4445-0.9808-1.4445c-0.629,0-1.129,0.4445-1.1854,0.4914l-0.0832-0.5745c0.4455-0.24,0.7772-0.4158,1.2973-0.4158
		c1.4531,0,1.4531,1.2217,1.4531,1.5639V21.6572 M144.4041,20.3342c-1.1098,0-2.0457,0-2.0457,1.0735
		c0,0.3977,0.2963,0.87,0.8708,0.87c0.2505,0,1.1749-0.1023,1.1749-1.3881V20.3342z"/>
	<path class="st0" d="M146.0981,19.4546c0-0.4903-0.0287-0.9722-0.0363-1.4626h0.4981c0.0201,0.2132,0.0287,0.3518,0.0383,0.694
		h0.0191c0.1099-0.2036,0.4158-0.7581,1.2026-0.7581c1.3049,0,1.3049,1.3049,1.3049,1.6194v3.1652h-0.5363v-3.1834
		c0-0.3241,0-1.1023-0.8805-1.1023c-0.6568,0-1.0726,0.6204-1.0726,1.3528v2.9329h-0.5372V19.4546"/>
	<path class="st0" d="M150.3369,19.4546c0-0.4903-0.0277-0.9722-0.0363-1.4626h0.499c0.0192,0.2132,0.0278,0.3518,0.0373,0.694
		h0.0192c0.1099-0.2036,0.4158-0.7581,1.2026-0.7581c1.3049,0,1.3049,1.3049,1.3049,1.6194v3.1652h-0.5364v-3.1834
		c0-0.3241,0-1.1023-0.8804-1.1023c-0.6568,0-1.0726,0.6204-1.0726,1.3528v2.9329h-0.5372V19.4546"/>
	<path class="st0" d="M154.8997,20.5282c0,1.7494,1.1205,1.7494,1.3317,1.7494c0.3068,0,0.7514-0.1481,1.0181-0.389l0.0287,0.6203
		c-0.2218,0.1205-0.5363,0.2687-1.1013,0.2687c-1.8507,0-1.8507-1.9531-1.8507-2.4253c0-1.7771,0.8795-2.4243,1.6748-2.4243
		c1.369,0,1.5085,1.453,1.5085,2.6002H154.8997 M156.9359,20.0283c0-1.2495-0.5277-1.6013-0.9626-1.6013
		c-0.7314,0-1.0736,0.9904-1.0736,1.6013H156.9359z"/>
	<path class="st0" d="M161.535,21.1486c0,0.74,0.0192,1.1567,0.0373,1.564h-0.4989v-0.6473h-0.0182
		c-0.3518,0.4435-0.6481,0.7123-1.2409,0.7123c-1.5372,0-1.5916-1.9435-1.5916-2.6013c0-0.8977,0.3786-2.2484,1.5629-2.2484
		c0.6013,0,0.9541,0.2399,1.195,0.6749h0.0172v-2.8316h0.5372V21.1486 M159.8698,22.2776c0.9167,0,1.1663-0.9072,1.1663-1.8698
		c0-0.6281,0-1.9808-1.1568-1.9808c-0.8049,0-1.084,0.8336-1.084,1.9253C158.7953,20.7414,158.7953,22.2776,159.8698,22.2776z"/>
	<path class="st0" d="M164.9967,16.2521h1.2131c1.2122,0,1.9702,0.5181,1.9702,1.823c0,1.3977-0.9722,1.824-1.8038,1.824h-0.8059
		v2.8135h-0.5735V16.2521 M165.5702,19.3619h0.5841c0.8499,0,1.4148-0.2868,1.4148-1.2868c0-1.2857-0.9617-1.2857-1.498-1.2857
		h-0.5009V19.3619z"/>
	<path class="st0" d="M171.653,21.6572c0,0.3518,0.0287,0.7036,0.0564,1.0555h-0.4818l-0.0363-0.6759h-0.0191
		c-0.3241,0.5181-0.7131,0.7409-1.3241,0.7409c-0.7312,0-1.3135-0.6023-1.3135-1.37c0-1.5085,1.6003-1.5362,2.2771-1.5362h0.3422
		c0-0.5927,0-1.4445-0.9808-1.4445c-0.63,0-1.1309,0.4445-1.1855,0.4914l-0.0831-0.5745c0.4445-0.24,0.7772-0.4158,1.2963-0.4158
		c1.4521,0,1.4521,1.2217,1.4521,1.5639V21.6572 M171.154,20.3342c-1.1109,0-2.0457,0-2.0457,1.0735
		c0,0.3977,0.2953,0.87,0.869,0.87c0.2514,0,1.1767-0.1023,1.1767-1.3881V20.3342z"/>
	<path class="st0" d="M172.847,19.4546c0-0.4903-0.0277-0.9722-0.0363-1.4626h0.4991c0.0086,0.2791,0.0277,0.5554,0.0372,0.7504
		h0.0182c0.3432-0.675,0.7408-0.8145,1.2581-0.8145v0.5735c-0.8509,0-1.239,0.3699-1.239,1.2399v2.9712h-0.5372V19.4546"/>
	<path class="st0" d="M175.6977,20.5282c0,1.7494,1.1204,1.7494,1.3317,1.7494c0.3068,0,0.7513-0.1481,1.0181-0.389l0.0287,0.6203
		c-0.2227,0.1205-0.5363,0.2687-1.1013,0.2687c-1.8517,0-1.8517-1.9531-1.8517-2.4253c0-1.7771,0.8804-2.4243,1.6758-2.4243
		c1.3699,0,1.5085,1.453,1.5085,2.6002H175.6977 M177.733,20.0283c0-1.2495-0.5267-1.6013-0.9617-1.6013
		c-0.7313,0-1.0736,0.9904-1.0736,1.6013H177.733z"/>
	<path class="st0" d="M179.2693,19.4546c0-0.4903-0.0278-0.9722-0.0364-1.4626h0.5c0.0191,0.2132,0.0267,0.3518,0.0363,0.694h0.0201
		c0.1109-0.2036,0.4158-0.7581,1.2016-0.7581c1.3049,0,1.3049,1.3049,1.3049,1.6194v3.1652h-0.5363v-3.1834
		c0-0.3241,0-1.1023-0.8786-1.1023c-0.6568,0-1.0744,0.6204-1.0744,1.3528v2.9329h-0.5372V19.4546"/>
	<path class="st0" d="M184.287,16.8831v1.1089h0.9627v0.4999h-0.9627v3.0725c0,0.3795,0.0641,0.7131,0.5181,0.7131
		c0.2495,0,0.3413-0.0554,0.4445-0.1023v0.5373c-0.13,0.0458-0.3709,0.065-0.6204,0.065c-0.694,0-0.8795-0.5373-0.8795-1.065V18.492
		h-0.7036V17.992h0.7036v-0.9436L184.287,16.8831"/>
	<path class="st0" d="M186.0356,15.7713h0.5362v2.9148h0.0191c0.0928-0.2036,0.4168-0.7581,1.1654-0.7581
		c1.3049,0,1.3049,1.3049,1.3049,1.6194v3.1652h-0.5354v-3.1834c0-0.3241,0-1.1023-0.8795-1.1023
		c-0.6577,0-1.0746,0.6204-1.0746,1.3528v2.9329h-0.5362V15.7713"/>
	<path class="st0" d="M190.0248,20.3523c0-1.1844,0.388-2.4243,1.7665-2.4243c1.3805,0,1.7686,1.2399,1.7686,2.4243
		c0,1.1845-0.3881,2.4253-1.7686,2.4253C190.4129,22.7776,190.0248,21.5368,190.0248,20.3523 M192.9854,20.3523
		c0-0.3795,0-1.9253-1.1941-1.9253c-1.193,0-1.193,1.5458-1.193,1.9253c0,0.3795,0,1.9253,1.193,1.9253
		C192.9854,22.2776,192.9854,20.7318,192.9854,20.3523z"/>
	<path class="st0" d="M194.2731,20.3523c0-1.1844,0.3891-2.4243,1.7666-2.4243c1.3804,0,1.7685,1.2399,1.7685,2.4243
		c0,1.1845-0.3881,2.4253-1.7685,2.4253C194.6622,22.7776,194.2731,21.5368,194.2731,20.3523 M197.2347,20.3523
		c0-0.3795,0-1.9253-1.1949-1.9253c-1.1931,0-1.1931,1.5458-1.1931,1.9253c0,0.3795,0,1.9253,1.1931,1.9253
		C197.2347,22.2776,197.2347,20.7318,197.2347,20.3523z"/>
	<path class="st0" d="M201.8338,21.1486c0,0.74,0.0192,1.1567,0.0373,1.564h-0.4989v-0.6473h-0.0182
		c-0.3518,0.4435-0.6481,0.7123-1.2418,0.7123c-1.5352,0-1.5907-1.9435-1.5907-2.6013c0-0.8977,0.3786-2.2484,1.564-2.2484
		c0.6004,0,0.9531,0.2399,1.194,0.6749h0.0172v-2.8316h0.5372V21.1486 M200.1686,22.2776c0.9167,0,1.1663-0.9072,1.1663-1.8698
		c0-0.6281,0-1.9808-1.1568-1.9808c-0.8049,0-1.084,0.8336-1.084,1.9253C199.094,20.7414,199.094,22.2776,200.1686,22.2776z"/>
	<polyline class="st0" points="136.0663,26.7057 138.7038,26.7057 138.7038,27.2439 136.6398,27.2439 136.6398,29.5382 
		138.6014,29.5382 138.6014,30.0745 136.6398,30.0745 136.6398,33.1661 136.0663,33.1661 136.0663,26.7057 	"/>
	<path class="st0" d="M139.6578,30.9817c0,1.7494,1.1195,1.7494,1.3326,1.7494c0.3059,0,0.7504-0.1481,1.0182-0.389l0.0267,0.6204
		c-0.2208,0.1204-0.5354,0.2686-1.1013,0.2686c-1.8497,0-1.8497-1.953-1.8497-2.4253c0-1.7771,0.8785-2.4243,1.6748-2.4243
		c1.3699,0,1.5085,1.453,1.5085,2.6002H139.6578 M141.694,30.4817c0-1.2495-0.5277-1.6013-0.9636-1.6013
		c-0.7313,0-1.0726,0.9905-1.0726,1.6013H141.694z"/>
	<path class="st0" d="M146.2941,31.6021c0,0.74,0.0182,1.1567,0.0373,1.564h-0.5009V32.518h-0.0172
		c-0.3528,0.4445-0.6481,0.7131-1.2418,0.7131c-1.5352,0-1.5916-1.9435-1.5916-2.6003c0-0.8985,0.3804-2.2493,1.5649-2.2493
		c0.6013,0,0.9522,0.2399,1.194,0.6749h0.0172v-2.8306h0.5382V31.6021 M144.6279,32.7311c0.9158,0,1.1653-0.9072,1.1653-1.8698
		c0-0.629,0-1.9808-1.1558-1.9808c-0.8058,0-1.084,0.8336-1.084,1.9253C143.5534,31.1949,143.5534,32.7311,144.6279,32.7311z"/>
	<path class="st0" d="M147.7921,30.9817c0,1.7494,1.1214,1.7494,1.3336,1.7494c0.3059,0,0.7504-0.1481,1.0181-0.389l0.0277,0.6204
		c-0.2227,0.1204-0.5363,0.2686-1.1013,0.2686c-1.8517,0-1.8517-1.953-1.8517-2.4253c0-1.7771,0.8805-2.4243,1.6749-2.4243
		c1.3709,0,1.5085,1.453,1.5085,2.6002H147.7921 M149.8284,30.4817c0-1.2495-0.5277-1.6013-0.9618-1.6013
		c-0.7312,0-1.0745,0.9905-1.0745,1.6013H149.8284z"/>
	<path class="st0" d="M151.3656,29.9081c0-0.4903-0.0287-0.9722-0.0363-1.4626h0.498c0.0106,0.2782,0.0287,0.5554,0.0373,0.7504
		h0.0201c0.3423-0.6758,0.74-0.8145,1.2581-0.8145v0.5745c-0.8508,0-1.2409,0.369-1.2409,1.2389v2.9712h-0.5362V29.9081"/>
	<path class="st0" d="M156.5965,32.1106c0,0.3518,0.0287,0.7036,0.0564,1.0555h-0.4818l-0.0363-0.6759h-0.0201
		c-0.323,0.5181-0.7112,0.7409-1.3221,0.7409c-0.7312,0-1.3144-0.6023-1.3144-1.3699c0-1.5086,1.6012-1.5363,2.277-1.5363h0.3423
		c0-0.5926,0-1.4445-0.9809-1.4445c-0.63,0-1.1309,0.4445-1.1854,0.4914l-0.0832-0.5745c0.4445-0.2399,0.7772-0.4158,1.2963-0.4158
		c1.4521,0,1.4521,1.2217,1.4521,1.5639V32.1106 M156.0976,30.7876c-1.1109,0-2.0458,0-2.0458,1.0736
		c0,0.3986,0.2963,0.8699,0.869,0.8699c0.2505,0,1.1768-0.1023,1.1768-1.388V30.7876z"/>
	<path class="st0" d="M158.5688,27.3356v1.1099h0.9607v0.4999h-0.9607v3.0725c0,0.3795,0.063,0.7131,0.5172,0.7131
		c0.2495,0,0.3432-0.0554,0.4435-0.1023v0.5373c-0.128,0.0458-0.3689,0.065-0.6185,0.065c-0.694,0-0.8804-0.5373-0.8804-1.065
		v-3.2207h-0.7036v-0.4999h0.7036v-0.9436L158.5688,27.3356"/>
	<path class="st0" d="M160.3076,26.5671h0.6481v0.8326h-0.6481V26.5671 M160.3641,28.4455h0.5362v4.7206h-0.5362V28.4455z"/>
	<path class="st0" d="M161.9079,30.8058c0-1.1844,0.39-2.4243,1.7685-2.4243c1.3795,0,1.7666,1.2399,1.7666,2.4243
		c0,1.1845-0.3872,2.4253-1.7666,2.4253C162.2979,33.2311,161.9079,31.9902,161.9079,30.8058 M164.8705,30.8058
		c0-0.3795,0-1.9253-1.1941-1.9253c-1.194,0-1.194,1.5458-1.194,1.9253c0,0.3795,0,1.9253,1.194,1.9253
		C164.8705,32.7311,164.8705,31.1853,164.8705,30.8058z"/>
	<path class="st0" d="M166.4067,29.9081c0-0.4903-0.0277-0.9722-0.0363-1.4626h0.4991c0.0191,0.2132,0.0277,0.3518,0.0372,0.694
		h0.0182c0.1109-0.2036,0.4168-0.7581,1.2036-0.7581c1.3049,0,1.3049,1.3049,1.3049,1.6194v3.1652h-0.5364v-3.1834
		c0-0.324,0-1.1023-0.8804-1.1023c-0.6568,0-1.0726,0.6204-1.0726,1.3518v2.9339h-0.5372V29.9081"/>
</g>
</svg>
