<?xml version="1.0" encoding="UTF-8"?> <svg xmlns="http://www.w3.org/2000/svg" id="Layer_1" data-name="Layer 1" viewBox="0 0 479.57 94.624"><title>logo</title><polygon points="48.461 50.662 57.192 41.931 59.233 39.89 57.192 37.848 55.15 39.89 46.364 48.676 37.578 39.89 35.537 37.848 33.495 39.89 35.537 41.931 44.268 50.662 35.537 59.393 33.495 61.435 35.537 63.476 37.578 61.435 46.364 52.649 55.15 61.435 57.192 63.476 59.233 61.435 57.192 59.393 48.461 50.662" style="fill:#394a92"></polygon><rect x="44.921" y="27.618" width="2.887" height="2.887" transform="translate(-6.97 41.297) rotate(-45)" style="fill:#394a92"></rect><rect x="44.921" y="70.82" width="2.887" height="2.887" transform="translate(-37.518 53.95) rotate(-45)" style="fill:#394a92"></rect><polygon points="82.254 12.786 57.192 37.848 59.234 39.89 86.337 12.786 82.254 12.786" style="fill:#e55661"></polygon><rect x="50.335" y="28.263" width="2.887" height="12.425" transform="translate(-9.213 46.71) rotate(-45)" style="fill:#38bace"></rect><rect x="45.565" y="65.405" width="12.426" height="2.888" transform="translate(-32.104 56.192) rotate(-45)" style="fill:#38bace"></rect><path d="M68.73,49.386l-9.5-9.5-2.041,2.042,8.731,8.731-8.731,8.731,2.041,2.042,9.5-9.5a1.806,1.806,0,0,0,0-2.552" style="fill:#38bace"></path><polygon points="6.392 12.786 33.494 39.889 35.537 37.848 10.475 12.786 6.392 12.786" style="fill:#38bace"></polygon><polygon points="7.106 87.824 11.19 87.824 35.537 63.478 33.495 61.435 7.106 87.824" style="fill:#38bace"></polygon><polygon points="46.364 27.021 32.13 12.786 28.046 12.786 44.323 29.062 46.364 27.021" style="fill:#38bace"></polygon><polygon points="28.762 87.824 32.845 87.824 46.365 74.304 44.323 72.263 28.762 87.824" style="fill:#38bace"></polygon><rect x="34.738" y="33.032" width="12.425" height="2.887" transform="translate(-12.384 39.054) rotate(-45)" style="fill:#e55661"></rect><rect x="39.507" y="60.637" width="2.887" height="12.425" transform="translate(-35.275 48.536) rotate(-45)" style="fill:#e55661"></rect><path d="M26.805,50.662l8.731-8.731L33.495,39.89l-9.5,9.5a1.807,1.807,0,0,0,0,2.553l9.5,9.5,2.041-2.042Z" style="fill:#e55661"></path><polygon points="64.682 12.786 60.599 12.786 46.364 27.02 48.406 29.062 64.682 12.786" style="fill:#e55661"></polygon><polygon points="46.364 74.305 59.884 87.825 63.967 87.825 48.406 72.263 46.364 74.305" style="fill:#e55661"></polygon><polygon points="59.233 61.435 57.192 63.476 81.539 87.824 85.621 87.824 59.233 61.435" style="fill:#e55661"></polygon><path d="M104.416,43.417a7.867,7.867,0,0,1-6.994-4.109l1.391-.995a6.725,6.725,0,0,0,5.769,3.546c2.949,0,5.336-1.822,5.336-4.806s-3.049-4.109-4.375-4.639-2.817-1.16-3.746-1.658a5.946,5.946,0,0,1-3.315-5.3c0-3.315,2.885-5.635,6.728-5.635a7.217,7.217,0,0,1,5.967,2.984L109.918,23.9a5.739,5.739,0,0,0-4.84-2.484c-2.651,0-4.774,1.391-4.774,3.975S102.1,29,103.719,29.7s4.176,1.755,4.706,2.054a6.057,6.057,0,0,1,3.315,5.3c0,3.482-2.884,6.364-7.324,6.364" style="fill:#4d4e51"></path><path d="M122.407,28.866c-3.711,0-6.03,2.885-6.03,6.464,0,3.546,2.319,6.463,6.03,6.463,3.746,0,6.066-2.917,6.066-6.463,0-3.579-2.32-6.464-6.066-6.464m0,14.485a7.729,7.729,0,0,1-7.854-7.954,7.873,7.873,0,1,1,15.744,0,7.737,7.737,0,0,1-7.89,7.954" style="fill:#4d4e51"></path><path d="M146.765,40.7c-.565.662-2.156,2.653-6.3,2.653s-7.524-3.315-7.524-8.022a7.733,7.733,0,0,1,7.688-7.954c4.077,0,5.734,2.22,6.065,2.651L145.6,31.189a6.034,6.034,0,0,0-5.038-2.255c-3.081,0-5.8,2.484-5.8,6.3s2.387,6.563,5.866,6.563a6.507,6.507,0,0,0,5.137-2.255Z" style="fill:#4d4e51"></path><path d="M152.266,43.02h-1.722V27.639h1.722ZM151.405,23.6a1.425,1.425,0,1,1,1.426-1.426,1.417,1.417,0,0,1-1.426,1.426" style="fill:#4d4e51"></path><path d="M168.53,34.236a5.337,5.337,0,0,0-5.3-5.368,5.467,5.467,0,0,0-5.47,5.368Zm1.658,1.491h-12.5c.166,3.646,2.222,6.068,5.7,6.068A7.848,7.848,0,0,0,168.8,39.8l.827,1.227s-1.921,2.32-6.4,2.32-7.357-3.313-7.357-8.022c0-4.739,3.38-7.954,7.456-7.954a6.854,6.854,0,0,1,6.961,7.192,9.588,9.588,0,0,1-.1,1.16" style="fill:#4d4e51"></path><path d="M180.092,42.854a4.823,4.823,0,0,1-2.319.5,3.016,3.016,0,0,1-2.917-1.658c-.53-1.025-.563-2.153-.563-4.639V29.265h-2.321V27.707h2.321V22.8h1.757v4.905h3.878v1.558h-3.912v8.816c0,1.69.2,3.713,2.254,3.713a3.274,3.274,0,0,0,1.658-.433Z" style="fill:#4d4e51"></path><path d="M196.222,27.64,188.432,46.6c-1.06,2.552-2.386,2.883-3.445,2.883a4.544,4.544,0,0,1-1.856-.4l.331-1.658a3.378,3.378,0,0,0,1.525.333c.927,0,1.558-.333,2.288-2.419l.893-2.553-6.2-15.147h1.822l5.3,13.39,5.3-13.39Z" style="fill:#4d4e51"></path><path d="M211.961,21.642a5.147,5.147,0,0,0-1.658-.331c-2.486,0-2.752,1.987-2.752,4.142v2.255h3.912v1.558h-3.912V43.019h-1.722V29.266h-2.32V27.708h2.32V25.619a6.985,6.985,0,0,1,.895-4.044,3.891,3.891,0,0,1,3.248-1.757,4.37,4.37,0,0,1,2.153.331Z" style="fill:#4d4e51"></path><path d="M219.98,28.866c-3.714,0-6.033,2.885-6.033,6.464,0,3.546,2.319,6.463,6.033,6.463,3.745,0,6.065-2.917,6.065-6.463,0-3.579-2.32-6.464-6.065-6.464m0,14.485a7.729,7.729,0,0,1-7.855-7.954,7.872,7.872,0,1,1,15.742,0,7.737,7.737,0,0,1-7.887,7.954" style="fill:#4d4e51"></path><path d="M237.846,29.3a4.462,4.462,0,0,0-1.657-.266,3.354,3.354,0,0,0-2.651,1.393,7.163,7.163,0,0,0-1.095,4.308v8.286h-1.722V27.64h1.722v2.885a4.056,4.056,0,0,1,3.912-3.149,5.5,5.5,0,0,1,1.658.232Z" style="fill:#4d4e51"></path><path d="M348.514,59.551h2.312c1.649,0,2.9.061,3.948.841l0,0a3.409,3.409,0,0,1,1.467,3.073,3.481,3.481,0,0,1-1.467,3.11,6.566,6.566,0,0,1-3.95.807h-2.312Zm11.56,3.847a6.558,6.558,0,0,0-2.405-5.232,9.391,9.391,0,0,0-5.9-1.71h-6.979V80.887h3.725V70.516h2.32l6.238,10.29.048.081h4.489L354.7,70.114a6.579,6.579,0,0,0,5.377-6.716" style="fill:#4c4d50"></path><path d="M370.307,66.4a4.622,4.622,0,0,1,4.607,4.41H365.6a4.68,4.68,0,0,1,4.706-4.41m.1-2.748a8.388,8.388,0,0,0-8.584,8.759c0,5.3,3.408,8.864,8.48,8.864a10.4,10.4,0,0,0,7.341-2.6l.063-.063.122-.1-1.583-2.178-.134.085c-.04.027-.1.07-.178.124a8.857,8.857,0,0,1-5.213,1.77,4.919,4.919,0,0,1-5.161-4.934h12.748l.02-.149c0-.034.106-.855.106-1.486a7.713,7.713,0,0,0-8.027-8.1" style="fill:#4c4d50"></path><path d="M389.57,71.447c-.587-.235-1.131-.422-1.82-.66l-.426-.146c-1.65-.528-3.131-1.1-3.131-2.318,0-1.2.908-1.893,2.487-1.893a5.93,5.93,0,0,1,4.068,1.731l.144.148,1.589-2.344-.091-.1a7.482,7.482,0,0,0-5.781-2.219c-2.773,0-5.757,1.54-5.757,4.92a4.408,4.408,0,0,0,2.708,4.13,8.057,8.057,0,0,0,1.58.644c.205.067.437.144.717.239.138.049.3.1.477.155,1.252.388,3.143.975,3.143,2.443,0,1.991-2.1,2.206-3.009,2.206a6.6,6.6,0,0,1-4.755-2.311l-.132-.161-1.824,2.22.084.106a8.074,8.074,0,0,0,6.593,3.034,7.229,7.229,0,0,0,4.716-1.507h0a4.862,4.862,0,0,0,1.773-3.9,4.241,4.241,0,0,0-1.379-3.191,6.578,6.578,0,0,0-1.977-1.225" style="fill:#4c4d50"></path><path d="M403.227,66.4a4.621,4.621,0,0,1,4.609,4.41h-9.315a4.681,4.681,0,0,1,4.706-4.41m.106-2.748a8.39,8.39,0,0,0-8.586,8.759c0,5.3,3.408,8.864,8.48,8.864a10.4,10.4,0,0,0,7.339-2.594c.033-.03.055-.053.069-.063l.12-.1-1.582-2.178-.136.085c-.041.027-.1.07-.177.124a8.861,8.861,0,0,1-5.214,1.77,4.919,4.919,0,0,1-5.162-4.934h12.748l.019-.149a14.381,14.381,0,0,0,.107-1.486,7.713,7.713,0,0,0-8.025-8.1" style="fill:#4c4d50"></path><path d="M424.208,72.937v3.329a5.076,5.076,0,0,1-4.054,2.293c-1.948,0-3.254-1.084-3.254-2.695,0-1.639,1.249-2.572,3.614-2.7Zm-3.776-9.289a12.974,12.974,0,0,0-6.3,1.7l-.132.077,1.156,2.552.165-.1a10.025,10.025,0,0,1,4.9-1.406c2.474,0,3.951,1.347,3.951,3.6v.5l-4.274.169c-4.229.193-6.656,2.1-6.656,5.233,0,3.481,2.965,5.3,5.894,5.3a6.861,6.861,0,0,0,5.111-2.232l.033,1.848h3.583V71.08c0-2.565-.531-4.156-1.831-5.5a7.423,7.423,0,0,0-5.6-1.936" style="fill:#4c4d50"></path><path d="M439.119,63.648a4.435,4.435,0,0,0-4.013,2.492l.03-2.177h-3.693V80.887h3.691V72.441a7.2,7.2,0,0,1,.977-4.087,3.315,3.315,0,0,1,2.59-1.33,4.31,4.31,0,0,1,1.747.335l.365.014.23-3.382-.11-.048a4.75,4.75,0,0,0-1.814-.295" style="fill:#4c4d50"></path><path d="M455.8,76.035a6.765,6.765,0,0,1-4.9,2.035c-3.136,0-5.242-2.3-5.242-5.732a5.214,5.214,0,0,1,5.208-5.558,6.388,6.388,0,0,1,4.838,1.977l.169.166,1.339-2.756-.07-.083c-.337-.407-2.24-2.436-6.556-2.436a8.814,8.814,0,0,0-.1,17.623c4.266,0,6.071-1.861,6.665-2.474l.174-.175-1.353-2.784Z" style="fill:#4c4d50"></path><path d="M468.286,63.648a5.84,5.84,0,0,0-5,2.6V56.455h-3.654V80.887h3.654V72.512c0-1.734.406-5.766,4.162-5.766,2.858,0,3.252,2.2,3.252,4.578v9.563h3.691V70.837c0-6.443-3.484-7.189-6.106-7.189" style="fill:#4c4d50"></path><polygon points="103.922 80.921 107.492 80.921 113.127 61.862 118.762 80.802 118.798 80.921 122.367 80.921 129.414 56.455 125.497 56.455 120.419 74.998 115.036 56.577 115 56.455 111.289 56.455 105.867 74.998 100.824 56.579 100.791 56.455 96.873 56.455 103.885 80.8 103.922 80.921" style="fill:#4c4d50"></polygon><path d="M137.6,66.71c3.067,0,5.208,2.327,5.208,5.663,0,3.353-2.141,5.7-5.208,5.7-3.087,0-5.242-2.344-5.242-5.7,0-3.336,2.155-5.663,5.242-5.663m0,14.561a8.813,8.813,0,1,0-8.968-8.793,8.574,8.574,0,0,0,8.968,8.793" style="fill:#4c4d50"></path><path d="M153.373,72.093c0-2.468,1-5.348,3.81-5.348,1.934,0,2.834,1.367,2.834,4.3v9.841h3.691V72.093c0-2.468,1-5.348,3.812-5.348,1.956,0,2.868,1.367,2.868,4.3v9.841h3.655V70.661c0-4.653-1.948-7.014-5.789-7.014a5.839,5.839,0,0,0-5.245,3.057,4.943,4.943,0,0,0-4.952-3.057,5.636,5.636,0,0,0-4.713,2.633l.031-2.318h-3.693V80.886h3.691Z" style="fill:#4c4d50"></path><path d="M180.825,70.807a4.682,4.682,0,0,1,4.706-4.412,4.621,4.621,0,0,1,4.609,4.412Zm4.706,10.464a10.4,10.4,0,0,0,7.341-2.595l.065-.063.122-.1-1.582-2.175-.136.085c-.041.026-.1.067-.177.124a8.881,8.881,0,0,1-5.214,1.769,4.919,4.919,0,0,1-5.162-4.934h12.749l.018-.148a14.464,14.464,0,0,0,.107-1.487,7.713,7.713,0,0,0-8.027-8.1,8.389,8.389,0,0,0-8.584,8.759c0,5.3,3.408,8.864,8.48,8.864" style="fill:#4c4d50"></path><path d="M205.292,63.648A5.791,5.791,0,0,0,200.3,66.3l.033-2.332h-3.693V80.887h3.689V72.372c0-2.1.532-5.626,4.091-5.626,2.738,0,3.288,1.805,3.288,4.718v9.423H211.4V70.906c0-4.952-1.94-7.258-6.106-7.258" style="fill:#4c4d50"></path><path d="M227.047,71.447c-.593-.237-1.14-.424-1.832-.664l-.415-.142c-1.649-.528-3.128-1.1-3.128-2.318,0-1.2.906-1.893,2.484-1.893a5.928,5.928,0,0,1,4.067,1.731l.144.148,1.59-2.344-.091-.1a7.478,7.478,0,0,0-5.781-2.219c-2.772,0-5.756,1.54-5.756,4.92a4.409,4.409,0,0,0,2.707,4.13,8.041,8.041,0,0,0,1.581.644c.2.069.436.144.715.239.14.049.3.1.479.155,1.251.388,3.142.975,3.142,2.443,0,1.991-2.1,2.206-3.008,2.206a6.605,6.605,0,0,1-4.757-2.311l-.13-.161-1.822,2.22.081.106a8.072,8.072,0,0,0,6.593,3.034,7.232,7.232,0,0,0,4.717-1.507,4.856,4.856,0,0,0,1.773-3.9,4.244,4.244,0,0,0-1.375-3.191,6.663,6.663,0,0,0-1.978-1.225" style="fill:#4c4d50"></path><polygon points="256.84 66.407 244.365 66.407 244.365 56.454 240.637 56.454 240.637 80.888 244.365 80.888 244.365 69.643 256.84 69.643 256.84 80.888 260.566 80.888 260.566 56.454 256.84 56.454 256.84 66.407" style="fill:#4c4d50"></polygon><path d="M272.338,66.4a4.619,4.619,0,0,1,4.607,4.41h-9.313a4.681,4.681,0,0,1,4.706-4.41m.1-2.748a8.388,8.388,0,0,0-8.584,8.759c0,5.3,3.408,8.864,8.48,8.864a10.4,10.4,0,0,0,7.341-2.6c.031-.03.051-.051.065-.063l.12-.1-1.582-2.178-.134.085c-.041.027-.1.07-.179.124a8.847,8.847,0,0,1-5.212,1.77A4.917,4.917,0,0,1,267.6,73.38h12.748l.019-.149a14.381,14.381,0,0,0,.107-1.486,7.713,7.713,0,0,0-8.027-8.1" style="fill:#4c4d50"></path><path d="M293.492,72.937v3.329a5.076,5.076,0,0,1-4.056,2.293c-1.946,0-3.255-1.084-3.255-2.695,0-1.639,1.25-2.572,3.614-2.7Zm-3.778-9.289a12.993,12.993,0,0,0-6.3,1.7l-.134.077,1.156,2.552.164-.1a10.061,10.061,0,0,1,4.9-1.406c2.474,0,3.95,1.347,3.95,3.6v.5l-4.271.169c-4.231.191-6.659,2.1-6.659,5.233,0,3.481,2.968,5.3,5.9,5.3a6.867,6.867,0,0,0,5.111-2.232l.032,1.848h3.581V71.08c0-2.563-.53-4.156-1.83-5.5a7.425,7.425,0,0,0-5.6-1.936" style="fill:#4c4d50"></path><rect x="300.792" y="56.456" width="3.656" height="24.432" style="fill:#4c4d50"></rect><path d="M316.84,77.705a3.919,3.919,0,0,1-1.634.365,1.559,1.559,0,0,1-1.564-.751,6.449,6.449,0,0,1-.4-2.956V67.024h3.982V64h-3.982V59.04h-3.69V64h-2.444v3.026h2.444v7.408c0,2.594.125,3.941.865,5.052a4.067,4.067,0,0,0,3.668,1.787A8.5,8.5,0,0,0,317.2,80.7l.112-.049-.242-3.063Z" style="fill:#4c4d50"></path><path d="M328.578,63.648a5.839,5.839,0,0,0-5,2.6V56.455h-3.654V80.887h3.654V72.512c0-1.734.406-5.766,4.162-5.766,2.858,0,3.252,2.2,3.252,4.578v9.563h3.691V70.837c0-6.443-3.484-7.189-6.106-7.189" style="fill:#4c4d50"></path><path d="M215.009,64.924l-1.373-1.148a5.632,5.632,0,0,0,2.408-3.443,1.625,1.625,0,0,1-.518.076,1.76,1.76,0,0,1-1.777-1.886,1.98,1.98,0,0,1,1.962-2c1.22,0,2.332,1,2.332,2.813A7.151,7.151,0,0,1,215.009,64.924Z" style="fill:#4c4d50"></path></svg> 