<svg xmlns="http://www.w3.org/2000/svg" viewBox="0 0 545.65 106.14"><g fill="#3a8dde"><path d="M231.51 21.63v12.9h-11.06v24.68a59.84 59.84 0 0 0 .32 8.74 3.64 3.64 0 0 0 1.43 2 4.71 4.71 0 0 0 2.74.8 21.47 21.47 0 0 0 6.53-1.55l1.38 12.55A32.16 32.16 0 0 1 220 84.22a20.65 20.65 0 0 1-7.89-1.45A11.72 11.72 0 0 1 207 79a15.06 15.06 0 0 1-2.28-6.32 79.73 79.73 0 0 1-.51-11.41V34.53h-7.44v-12.9h7.44V9.44L220.45 0v21.63zm-164.34-.01h15.12v9a22.14 22.14 0 0 1 7.95-7.5 21.87 21.87 0 0 1 11.13-2.89 23.3 23.3 0 0 1 18.09 8.36q7.44 8.35 7.44 23.3 0 15.31-7.48 23.83t-18.16 8.5a20.75 20.75 0 0 1-9.21-2 31.54 31.54 0 0 1-8.68-6.92v30.85h-16.2V21.62zm16 29.58c0 6.87 1.36 12 4.09 15.23a12.51 12.51 0 0 0 10 4.94 11.72 11.72 0 0 0 9.39-4.52c2.5-3 3.76-8 3.76-14.84q0-9.66-3.88-14.31A12 12 0 0 0 97 33a12.38 12.38 0 0 0-9.86 4.58Q83.2 42.2 83.21 51.2zm50.67 14.17l16.25-2.48a11.88 11.88 0 0 0 4.21 7.18c2.11 1.64 5.06 2.46 8.88 2.46 4.19 0 7.34-.76 9.44-2.32a5.09 5.09 0 0 0 2.15-4.31 4.32 4.32 0 0 0-1.16-3.07c-.81-.77-2.62-1.47-5.41-2.12q-19.6-4.3-24.86-7.89A15.81 15.81 0 0 1 136.08 39a17 17 0 0 1 6.28-13.36q6.28-5.43 19.48-5.43c8.38 0 14.62 1.38 18.69 4.09a20.94 20.94 0 0 1 8.41 12.12l-15.27 2.82a9.38 9.38 0 0 0-3.67-5.45c-1.83-1.28-4.43-1.91-7.81-1.91-4.28 0-7.33.59-9.18 1.79a3.87 3.87 0 0 0-1.88 3.33 3.53 3.53 0 0 0 1.62 2.93c1.46 1.08 6.49 2.59 15.13 4.56s14.64 4.31 18.12 7.17 5.07 6.9 5.07 12c0 5.61-2.34 10.45-7 14.48s-11.61 6-20.8 6c-8.35 0-14.94-1.69-19.82-5.07a23.26 23.26 0 0 1-9.61-13.7zm126.41 17.47h-16.19V21.63h15v8.69q3.87-6.16 7-8.12a12.85 12.85 0 0 1 7-2 20.42 20.42 0 0 1 10.67 3.07l-5 14.11a14.24 14.24 0 0 0-7.59-2.64 8.91 8.91 0 0 0-5.77 1.87c-1.59 1.24-2.81 3.5-3.72 6.77s-1.36 10.11-1.36 20.52zm64.12-19.48l16.16 2.7a26.43 26.43 0 0 1-9.84 13.52c-4.46 3.11-10.07 4.64-16.8 4.64q-16 0-23.64-10.43-6-8.36-6.06-21.09 0-15.24 8-23.85a26.17 26.17 0 0 1 20.11-8.62q13.67 0 21.57 9t7.56 27.65H300.8q.18 7.2 3.92 11.2a12.28 12.28 0 0 0 9.34 4 9.93 9.93 0 0 0 6.4-2.07 12.66 12.66 0 0 0 3.91-6.69zM325.3 47q-.18-7.05-3.62-10.7a11.68 11.68 0 0 0-17.18.21Q301 40.34 301.1 47zm40.08-6.7l-14.7-2.66c1.66-5.92 4.49-10.29 8.53-13.14s10-4.27 18-4.27c7.24 0 12.61.86 16.16 2.58s6 3.87 7.45 6.51 2.18 7.46 2.18 14.5l-.18 18.91a64.5 64.5 0 0 0 .79 11.91 34.42 34.42 0 0 0 2.91 8.2h-16c-.42-1.08-.95-2.67-1.56-4.78-.26-1-.45-1.59-.57-1.91a29.63 29.63 0 0 1-8.87 6.07 25.57 25.57 0 0 1-10.1 2c-6.3 0-11.28-1.71-14.9-5.11a17.08 17.08 0 0 1-5.45-13 17.47 17.47 0 0 1 2.48-9.25 16.16 16.16 0 0 1 6.95-6.22 54.94 54.94 0 0 1 12.89-3.78c7.55-1.41 12.81-2.75 15.72-4v-1.58c0-3.12-.77-5.33-2.3-6.67s-4.43-2-8.7-2a11.54 11.54 0 0 0-6.75 1.71c-1.61 1.12-2.91 3.11-3.92 6zm21.67 13.15a100.76 100.76 0 0 1-9.86 2.47c-4.49 1-7.42 1.92-8.82 2.82a6.79 6.79 0 0 0-3.16 5.71 7.92 7.92 0 0 0 2.53 5.88 8.88 8.88 0 0 0 6.46 2.48 14.16 14.16 0 0 0 8.36-2.87 10 10 0 0 0 3.86-5.38 31.55 31.55 0 0 0 .63-7.89zm28.7-31.82h14.93V30q8-9.73 19.09-9.74A20.51 20.51 0 0 1 460 22.65a18.51 18.51 0 0 1 7.07 7.35 28 28 0 0 1 8.7-7.32 21.34 21.34 0 0 1 10-2.42A22.2 22.2 0 0 1 497.16 23a16.75 16.75 0 0 1 7 8q1.68 3.93 1.68 12.7v39.14H489.6v-35q0-9.12-1.67-11.77a7.68 7.68 0 0 0-6.93-3.44 10.94 10.94 0 0 0-6.41 2.08 11.57 11.57 0 0 0-4.32 6.08c-.88 2.68-1.33 6.89-1.33 12.66v29.39h-16.2V49.29q0-8.94-.86-11.53a7.32 7.32 0 0 0-2.68-3.85 8.47 8.47 0 0 0-4.94-1.28 11.63 11.63 0 0 0-6.73 2 11 11 0 0 0-4.31 5.83c-.86 2.54-1.3 6.73-1.3 12.61v29.77h-16.17z"/><path d="M54.38 47.41V23.1v59.78H39.7v-9a23.35 23.35 0 0 1-8.59 7.56 24.36 24.36 0 0 1-11.24 2.74 22.06 22.06 0 0 1-10.8-2.63 15.77 15.77 0 0 1-6.94-7.44Q0 69.36 0 60.91V21.63h15.81v28.93q0 12.61.89 15.47a8.37 8.37 0 0 0 3.17 4.49 9.71 9.71 0 0 0 5.86 1.65A12.41 12.41 0 0 0 33 70a11.28 11.28 0 0 0 4.38-5.51c.79-2.21 1.2-7.59 1.2-16.14v-26.7h15.78v23z" fill-rule="evenodd"/></g><path d="M526.19 82.84V79h10.36a21.17 21.17 0 0 0 3.2-.14 3.07 3.07 0 0 0 1.88-1.18 4.07 4.07 0 0 0 .72-2.55 3.88 3.88 0 0 0-.68-2.48 2.61 2.61 0 0 0-1.64-1 20.78 20.78 0 0 0-3.26-.17h-10.58V67.6h10a25.81 25.81 0 0 1 4.87.31 5.43 5.43 0 0 1 2.4 1.15 6 6 0 0 1 1.56 2.25 10 10 0 0 1 .57 3.68 10.49 10.49 0 0 1-.63 4.16 5.9 5.9 0 0 1-1.64 2.23 5.31 5.31 0 0 1-2.12 1.09 23.49 23.49 0 0 1-4.85.37zm12.89-22.71l-.36-3.76A4.56 4.56 0 0 0 541.5 55a4.16 4.16 0 0 0 .89-2.8 4.28 4.28 0 0 0-.8-2.81 2.33 2.33 0 0 0-1.84-1 1.78 1.78 0 0 0-1.16.4 3.15 3.15 0 0 0-.82 1.39c-.16.45-.44 1.49-.84 3.09a10.35 10.35 0 0 1-1.93 4.41 5 5 0 0 1-3.85 1.76 4.91 4.91 0 0 1-2.73-.82 5.2 5.2 0 0 1-1.94-2.39 9.67 9.67 0 0 1-.66-3.77 8.1 8.1 0 0 1 1.61-5.46 5.6 5.6 0 0 1 4.22-1.91l.17 3.86a3.3 3.3 0 0 0-2.12 1.06 3.91 3.91 0 0 0-.65 2.45 4.45 4.45 0 0 0 .69 2.64 1.39 1.39 0 0 0 1.19.61 1.47 1.47 0 0 0 1.16-.57 10.07 10.07 0 0 0 1.28-3.55 18.79 18.79 0 0 1 1.37-4.17 5.54 5.54 0 0 1 2-2.12 5.77 5.77 0 0 1 3-.76 5.6 5.6 0 0 1 3.07.92 5.41 5.41 0 0 1 2.19 2.62 10.93 10.93 0 0 1 .69 4.16 8.26 8.26 0 0 1-1.69 5.57 7.23 7.23 0 0 1-4.92 2.32zm6.57-39.8v4.2l-4.35 1.67v7.64l4.35 1.58v4.1l-19.13-7.45V28l19.13-7.65zm-7.57 7.11L531 30.07l7.1 2.58z" fill="#5fc3aa"/></svg>