<svg viewBox="0 0 250 90" xmlns="http://www.w3.org/2000/svg"><path d="M156.43 33.94h6.25l.09 16.77c0 6-3.57 9.82-10 9.82s-9.85-3.86-9.85-9.82v-.12h6.18a.09.09 0 01.09.1 3.85 3.85 0 004.25 3.84c2-.22 2.91-1.54 2.91-3.82-.01 0 .03-16.77.08-16.77zM183.76 60.55c-8.1 0-13.83-5.71-13.84-13.5s5.71-13.52 13.82-13.52 13.83 5.71 13.84 13.5-5.71 13.51-13.82 13.52zm7.3-13.55c0-4.37-2.9-7.55-7.31-7.54s-7.31 3.18-7.31 7.55 2.91 7.55 7.32 7.55 7.31-3.16 7.3-7.56zM203.25 59.92v-25.8a.09.09 0 01.09-.09h12.27c5.08 0 7.63 2.85 7.63 6.82a6.07 6.07 0 01-3.13 5.61v.08a6.38 6.38 0 014.33 6.35c0 4.1-2.57 7.12-7.78 7.12h-13.31a.09.09 0 01-.1-.09zm6.42-19.84v4.06a.1.1 0 00.1.09h4.75c1.71 0 2.35-1 2.35-2.11s-.48-2.12-2.35-2.12h-4.75a.09.09 0 00-.1.08zm0 9.41V54a.1.1 0 00.1.1h5.55c1.86 0 2.5-1 2.5-2.3a2.29 2.29 0 00-2.51-2.35h-5.55a.09.09 0 00-.08.04zM243.64 41.78a.09.09 0 01-.09-.09c-.08-1.47-1-2.61-3.22-2.61s-3.21 1.32-3.21 2.67c0 4.37 12.87 0 12.88 10.4 0 5.16-3.89 8.42-9.77 8.43s-9.61-3.09-9.78-8.08a.11.11 0 01.1-.1h6.09a.09.09 0 01.09.09c0 1.58 1 2.57 3.5 2.57s3.49-1 3.49-2.67c0-4.37-12.79 0-12.8-10.4 0-4.93 3.73-8.43 9.33-8.43 5.41 0 9.09 3.24 9.34 8.12a.1.1 0 01-.1.1z" fill="#0b1f3a"/><g fill="#e39800"><path d="M13.76 59.34l-4.55-8.05a.11.11 0 00-.09 0H6.53a.1.1 0 00-.09.1v7.95a.1.1 0 01-.1.1H.1a.09.09 0 01-.1-.1V33.5a.09.09 0 01.1-.1h10.43c6.87 0 9.93 3.74 9.93 8.9 0 3.66-1.55 6.64-4.84 8v.08l5.7 8.83a.1.1 0 01-.08.15h-7.4a.1.1 0 01-.08-.02zm-3.15-14.06c2.58 0 3.34-1.27 3.34-3s-.76-2.94-3.34-2.94H6.53a.09.09 0 00-.09.1v5.73a.09.09 0 00.09.09zM28.29 59.29V33.5a.09.09 0 01.1-.1h19a.09.09 0 01.09.1v5.77a.09.09 0 01-.09.09H34.82a.09.09 0 00-.09.1v4.06a.09.09 0 00.09.09h10.26a.1.1 0 01.1.1v5a.09.09 0 01-.1.1H34.82a.09.09 0 00-.09.09v4.46a.09.09 0 00.09.1h12.57a.09.09 0 01.09.09v5.77a.09.09 0 01-.09.1h-19a.09.09 0 01-.1-.13zM55.75 59.29V33.5a.09.09 0 01.09-.1H66c7.07 0 10.21 3.86 10.21 9.14S73 51.72 66 51.72h-3.72a.09.09 0 00-.09.09v7.48a.1.1 0 01-.1.1h-6.25a.09.09 0 01-.09-.1zm10.33-13.53c2.74 0 3.58-1.35 3.58-3.22s-.84-3.18-3.58-3.18h-3.8a.09.09 0 00-.09.1v6.2a.09.09 0 00.09.1zM96.67 59.34l-4.56-8.05a.08.08 0 00-.08 0h-2.59a.1.1 0 00-.09.1v7.95a.1.1 0 01-.1.1H83a.09.09 0 01-.09-.1V33.5a.09.09 0 01.09-.1h10.44c6.87 0 9.93 3.74 9.93 8.9 0 3.66-1.55 6.64-4.85 8v.08l5.71 8.83a.1.1 0 01-.08.15h-7.4a.1.1 0 01-.08-.02zm-3.15-14.06c2.58 0 3.34-1.27 3.34-3s-.76-2.94-3.34-2.94h-4.08a.09.09 0 00-.09.1v5.73a.09.09 0 00.09.09zM123.35 59.91c-8.1 0-13.83-5.73-13.83-13.52s5.73-13.51 13.83-13.51 13.83 5.73 13.83 13.51-5.72 13.52-13.83 13.52z"/></g><path d="M114.05 36.53a2.5 2.5 0 004.27-2.17c-1.21-6.71-5-16.41-16.14-23.61C90.66 3.32 81.93.89 76.77.14A1 1 0 0076.05 2a59.62 59.62 0 019.72 7.67A47.69 47.69 0 0193 19a17.67 17.67 0 006.33 6 62.49 62.49 0 0114.72 11.51" fill="#0b1f3a"/><path d="M123.33 60.11c-8.39 0-14.32-5.93-14.32-14s5.93-14 14.32-14 14.31 5.92 14.31 14-5.93 14-14.31 14z" fill="#e39800"/><path d="M165 87.51c-3.36-2-11.33-8-18.47-19.36-6.38-10.18-11-13.82-15.83-16.34a3.05 3.05 0 00-4.15 4 65.24 65.24 0 015.13 12.74 26.61 26.61 0 003.13 7.59l5.78-4.11c.29.44.6.88.92 1.31l-5.8 4.13a16.59 16.59 0 002.08 2.31l5.66-4c.35.41.72.81 1.08 1.2l-5.45 3.88c1 .75 2 1.44 3 2.07l4.92-3.45c.4.39.8.76 1.2 1.12l-4.59 3.27a46.1 46.1 0 003.25 1.77l4-2.82c.46.37.9.72 1.32 1l-3.6 2.57a44.27 44.27 0 0015.83 3.45 1.27 1.27 0 00.59-2.33z" fill="#0b1f3a"/></svg>
